<svg width="200" height="200" viewBox="0 0 200 200" fill="none" xmlns="http://www.w3.org/2000/svg">
<g id="Development" clip-path="url(#clip0_168_718)">
<g id="Layer 2">
<g id="Layer 1">
<g id="Development_2">
<path id="Vector" d="M167.24 37.02H32.7402C22.7991 37.02 14.7402 45.0789 14.7402 55.02V144.98C14.7402 154.921 22.7991 162.98 32.7402 162.98H167.24C177.181 162.98 185.24 154.921 185.24 144.98V55.02C185.24 45.0789 177.181 37.02 167.24 37.02Z" fill="white"/>
<path id="Vector_2" d="M167.26 166H32.7402C27.1723 165.995 21.834 163.781 17.8968 159.843C13.9597 155.906 11.7455 150.568 11.7402 145V55C11.7455 49.4321 13.9597 44.0937 17.8968 40.1566C21.834 36.2195 27.1723 34.0053 32.7402 34H167.26C172.828 34.0053 178.167 36.2195 182.104 40.1566C186.041 44.0937 188.255 49.4321 188.26 55V145C188.255 150.568 186.041 155.906 182.104 159.843C178.167 163.781 172.828 165.995 167.26 166ZM32.7402 40C28.7636 40.0053 24.9514 41.5873 22.1395 44.3992C19.3276 47.2111 17.7455 51.0234 17.7402 55V145C17.7455 148.977 19.3276 152.789 22.1395 155.601C24.9514 158.413 28.7636 159.995 32.7402 160H167.26C171.237 159.995 175.049 158.413 177.861 155.601C180.673 152.789 182.255 148.977 182.26 145V55C182.255 51.0234 180.673 47.2111 177.861 44.3992C175.049 41.5873 171.237 40.0053 167.26 40H32.7402Z" fill="#457FBE"/>
<path id="Vector_3" d="M32.0004 53.1201C34.0107 53.1201 35.6404 51.4904 35.6404 49.4801C35.6404 47.4698 34.0107 45.8401 32.0004 45.8401C29.99 45.8401 28.3604 47.4698 28.3604 49.4801C28.3604 51.4904 29.99 53.1201 32.0004 53.1201Z" fill="#FFC310"/>
<path id="Vector_4" d="M44.3402 53.1201C46.3505 53.1201 47.9802 51.4904 47.9802 49.4801C47.9802 47.4698 46.3505 45.8401 44.3402 45.8401C42.3299 45.8401 40.7002 47.4698 40.7002 49.4801C40.7002 51.4904 42.3299 53.1201 44.3402 53.1201Z" fill="#FFC310"/>
<path id="Vector_5" d="M56.6996 53.1201C58.7099 53.1201 60.3396 51.4904 60.3396 49.4801C60.3396 47.4698 58.7099 45.8401 56.6996 45.8401C54.6893 45.8401 53.0596 47.4698 53.0596 49.4801C53.0596 51.4904 54.6893 53.1201 56.6996 53.1201Z" fill="#FFC310"/>
<path id="Vector_6" d="M167.7 52.48H134C133.204 52.48 132.441 52.1639 131.879 51.6013C131.316 51.0387 131 50.2756 131 49.48C131 48.6843 131.316 47.9213 131.879 47.3587C132.441 46.7961 133.204 46.48 134 46.48H167.7C168.496 46.48 169.259 46.7961 169.821 47.3587C170.384 47.9213 170.7 48.6843 170.7 49.48C170.7 50.2756 170.384 51.0387 169.821 51.6013C169.259 52.1639 168.496 52.48 167.7 52.48Z" fill="#FFC310"/>
<path id="Vector_7" d="M87.6805 140.2C87.1696 140.199 86.6674 140.068 86.2214 139.819C85.7754 139.57 85.4004 139.211 85.132 138.776C84.8636 138.342 84.7106 137.846 84.6876 137.335C84.6646 136.825 84.7723 136.317 85.0005 135.86L109.46 86.6401C109.813 85.9266 110.435 85.3826 111.189 85.1275C111.943 84.8725 112.767 84.9273 113.48 85.2801C114.194 85.6328 114.738 86.2545 114.993 87.0084C115.248 87.7623 115.193 88.5866 114.84 89.3001L90.3605 138.54C90.1118 139.038 89.7294 139.457 89.2561 139.75C88.7828 140.044 88.2372 140.199 87.6805 140.2Z" fill="#FFC310"/>
<path id="Vector_8" d="M125.68 130.38C125.184 130.386 124.695 130.266 124.258 130.031C123.82 129.797 123.45 129.456 123.18 129.04C122.961 128.714 122.809 128.349 122.732 127.965C122.655 127.58 122.654 127.184 122.731 126.8C122.807 126.415 122.958 126.049 123.176 125.723C123.394 125.397 123.674 125.118 124 124.9L143 112.26L125.22 100.44C124.557 99.9997 124.096 99.314 123.938 98.5339C123.781 97.7537 123.94 96.9429 124.38 96.2799C124.82 95.6169 125.506 95.1559 126.286 94.9983C127.066 94.8408 127.877 94.9997 128.54 95.4399L150 109.76C150.412 110.034 150.751 110.405 150.985 110.841C151.219 111.277 151.341 111.765 151.341 112.26C151.341 112.755 151.219 113.242 150.985 113.679C150.751 114.115 150.412 114.486 150 114.76L127.34 129.88C126.847 130.204 126.27 130.378 125.68 130.38Z" fill="#FFC310"/>
<path id="Vector_9" d="M74.3199 130.38C73.7298 130.378 73.153 130.204 72.6599 129.88L49.9999 114.76C49.5873 114.486 49.2489 114.115 49.0148 113.679C48.7807 113.242 48.6582 112.755 48.6582 112.26C48.6582 111.765 48.7807 111.277 49.0148 110.841C49.2489 110.405 49.5873 110.034 49.9999 109.76L71.5199 95.4399C72.1829 94.9997 72.9937 94.8408 73.7739 94.9983C74.554 95.1559 75.2396 95.6169 75.6799 96.2799C76.1201 96.9429 76.279 97.7537 76.1215 98.5339C75.9639 99.314 75.5029 99.9997 74.8399 100.44L56.9999 112.26L75.9999 124.9C76.326 125.118 76.606 125.397 76.8238 125.723C77.0416 126.049 77.1929 126.415 77.2691 126.8C77.3452 127.184 77.3448 127.58 77.2677 127.965C77.1906 128.349 77.0384 128.714 76.8199 129.04C76.55 129.456 76.1793 129.797 75.7422 130.031C75.3051 130.266 74.8158 130.386 74.3199 130.38Z" fill="#FFC310"/>
<path id="Vector_10" d="M185.24 57.6599H14.7402V63.6599H185.24V57.6599Z" fill="#457FBE"/>
</g>
</g>
</g>
</g>
<defs>
<clipPath id="clip0_168_718">
<rect width="200" height="200" fill="white"/>
</clipPath>
</defs>
</svg>
