<svg width="200" height="200" viewBox="0 0 200 200" fill="none" xmlns="http://www.w3.org/2000/svg">
<g clip-path="url(#clip0_168_661)">
<path d="M130.72 143.74V192.7C130.719 193.467 130.498 194.217 130.083 194.862C129.669 195.507 129.077 196.018 128.38 196.337C127.682 196.655 126.908 196.766 126.149 196.657C125.39 196.547 124.679 196.222 124.1 195.72L105.12 179.34C103.733 178.134 101.957 177.47 100.12 177.47C98.2819 177.47 96.5062 178.134 95.1195 179.34L76.1395 195.72C75.5602 196.222 74.8488 196.547 74.09 196.657C73.3311 196.766 72.5569 196.655 71.8594 196.337C71.1618 196.018 70.5705 195.507 70.1556 194.862C69.7408 194.217 69.52 193.467 69.5195 192.7V143.74" fill="white"/>
<path d="M126.7 199.7C125.025 199.699 123.407 199.095 122.14 198L103.16 181.6C102.317 180.901 101.256 180.518 100.16 180.518C99.0645 180.518 98.0034 180.901 97.16 181.6L78.12 198C77.1024 198.869 75.8575 199.43 74.5319 199.615C73.2064 199.8 71.8555 199.603 70.6384 199.046C69.4214 198.489 68.389 197.596 67.6628 196.471C66.9367 195.347 66.5471 194.038 66.54 192.7V143.74H72.54V192.7C72.5463 192.89 72.6053 193.074 72.7104 193.231C72.8155 193.389 72.9625 193.515 73.1349 193.594C73.3073 193.673 73.4983 193.702 73.6865 193.678C73.8746 193.655 74.0525 193.579 74.2 193.46L93.18 177.06C95.1175 175.405 97.5819 174.496 100.13 174.496C102.678 174.496 105.143 175.405 107.08 177.06L126 193.46C126.146 193.588 126.327 193.669 126.519 193.694C126.711 193.719 126.906 193.686 127.08 193.6C127.257 193.527 127.407 193.401 127.511 193.241C127.614 193.08 127.666 192.891 127.66 192.7V143.74H133.66V192.7C133.674 194.032 133.304 195.34 132.595 196.468C131.886 197.596 130.867 198.496 129.66 199.06C128.732 199.486 127.722 199.705 126.7 199.7Z" fill="#FFC310"/>
<path d="M121.42 131.18V173.62C121.423 174.154 121.273 174.679 120.986 175.13C120.7 175.581 120.289 175.94 119.804 176.163C119.318 176.387 118.779 176.466 118.249 176.391C117.72 176.316 117.224 176.09 116.82 175.74L103.6 164.32C102.635 163.489 101.403 163.033 100.13 163.033C98.8564 163.033 97.6252 163.489 96.6599 164.32L83.4399 175.74C83.0359 176.09 82.5396 176.316 82.0104 176.391C81.4813 176.466 80.9417 176.387 80.4563 176.163C79.9709 175.94 79.5602 175.581 79.2736 175.13C78.9869 174.679 78.8363 174.154 78.8399 173.62V131.18" fill="white"/>
<path d="M81.6398 179.42C80.1048 179.41 78.6357 178.795 77.5502 177.71C76.4648 176.624 75.8503 175.155 75.8398 173.62V139.62H81.8398V173.16L94.6998 162C96.2117 160.703 98.1379 159.99 100.13 159.99C102.122 159.99 104.048 160.703 105.56 162L118.42 173.1V139.54H124.42V173.54C124.437 174.655 124.131 175.751 123.539 176.696C122.947 177.641 122.095 178.395 121.084 178.866C120.074 179.337 118.948 179.506 117.844 179.353C116.74 179.199 115.703 178.729 114.86 178L101.64 166.6C101.221 166.236 100.685 166.035 100.13 166.035C99.5748 166.035 99.0385 166.236 98.6199 166.6L85.3998 178C84.3615 178.916 83.0244 179.421 81.6398 179.42Z" fill="#FFC310"/>
<path d="M108.5 8.50012L124.9 41.7201C125.577 43.0876 126.578 44.2689 127.815 45.1612C129.052 46.0536 130.489 46.63 132 46.8401L168.6 52.1601C170.34 52.4003 171.976 53.1258 173.322 54.2534C174.667 55.3811 175.668 56.8652 176.209 58.5355C176.749 60.2058 176.808 61.9947 176.379 63.6971C175.949 65.3994 175.049 66.9462 173.78 68.1601L147.24 94.0001C146.157 95.0601 145.346 96.3674 144.88 97.8097C144.413 99.252 144.303 100.786 144.56 102.28L150.82 138.8C151.112 140.516 150.919 142.279 150.262 143.89C149.605 145.502 148.511 146.898 147.103 147.921C145.696 148.944 144.03 149.554 142.294 149.681C140.559 149.808 138.822 149.447 137.28 148.64L104.48 131.4C103.14 130.691 101.647 130.32 100.13 130.32C98.6141 130.32 97.1207 130.691 95.7804 131.4L63.0004 148.58C61.4581 149.393 59.7191 149.758 57.9801 149.633C56.2412 149.509 54.5718 148.9 53.1608 147.876C51.7498 146.853 50.6535 145.454 49.996 143.84C49.3385 142.225 49.1461 140.458 49.4404 138.74L55.7004 102.22C55.9475 100.735 55.8329 99.2131 55.3664 97.7821C54.8999 96.3512 54.0951 95.0538 53.0204 94.0001L26.5004 68.0001C25.2247 66.7909 24.3168 65.2456 23.8818 63.5425C23.4467 61.8394 23.5021 60.048 24.0417 58.3751C24.5812 56.7022 25.5828 55.2159 26.9309 54.0879C28.279 52.9599 29.9186 52.2361 31.6604 52.0001L68.3404 46.6801C69.8384 46.461 71.2605 45.8803 72.4836 44.9882C73.7067 44.0961 74.6941 42.9195 75.3604 41.5601L91.7604 8.34012C92.5477 6.78747 93.7532 5.48574 95.2409 4.58179C96.7286 3.67785 98.4394 3.20767 100.18 3.2243C101.921 3.24094 103.622 3.74374 105.092 4.67595C106.563 5.60817 107.743 6.93271 108.5 8.50012Z" fill="white"/>
<path d="M141.62 152.66C139.618 152.655 137.647 152.161 135.88 151.22L103.08 134C102.168 133.527 101.157 133.28 100.13 133.28C99.1028 133.28 98.091 133.527 97.1797 134L64.3797 151.24C62.3425 152.309 60.0468 152.788 57.752 152.622C55.4571 152.455 53.2545 151.651 51.3928 150.299C49.5311 148.946 48.0845 147.101 47.2163 144.97C46.3482 142.839 46.093 140.508 46.4797 138.24L52.7597 101.72C52.9268 100.709 52.8487 99.6728 52.532 98.6983C52.2153 97.7238 51.6692 96.8396 50.9397 96.12L24.3997 70.24C22.7533 68.6324 21.5891 66.5964 21.0388 64.3621C20.4884 62.1278 20.5738 59.7841 21.2852 57.5957C21.9967 55.4073 23.3058 53.4614 25.0648 51.9779C26.8239 50.4943 28.9627 49.5321 31.2397 49.2L67.9997 43.86C69.0156 43.7091 69.9803 43.316 70.8123 42.7138C71.6442 42.1115 72.319 41.3179 72.7797 40.4L89.1797 7.18C90.1945 5.11206 91.7688 3.37004 93.7238 2.15173C95.6788 0.933413 97.9362 0.287598 100.24 0.287598C102.543 0.287598 104.801 0.933413 106.756 2.15173C108.711 3.37004 110.285 5.11206 111.3 7.18L127.6 40.4C128.054 41.3185 128.725 42.1131 129.554 42.7157C130.383 43.3183 131.346 43.711 132.36 43.86L169.04 49.2C171.319 49.5281 173.461 50.4887 175.223 51.9727C176.984 53.4566 178.294 55.4046 179.004 57.5954C179.714 59.7863 179.796 62.1324 179.24 64.3674C178.684 66.6024 177.513 68.6369 175.86 70.24L149.34 96.1C148.602 96.8136 148.05 97.6972 147.733 98.6735C147.415 99.6497 147.342 100.689 147.52 101.7L153.78 138.22C154.075 139.991 153.982 141.804 153.508 143.535C153.034 145.267 152.19 146.874 151.034 148.247C149.877 149.621 148.437 150.726 146.811 151.488C145.186 152.25 143.415 152.65 141.62 152.66ZM100.14 127.26C102.141 127.255 104.112 127.743 105.88 128.68L138.68 146C139.725 146.553 140.905 146.802 142.085 146.718C143.265 146.633 144.397 146.22 145.354 145.524C146.31 144.828 147.052 143.877 147.495 142.781C147.938 141.684 148.064 140.485 147.86 139.32L141.6 102.72C141.264 100.749 141.411 98.7266 142.028 96.8249C142.644 94.9232 143.712 93.1991 145.14 91.8L171.68 66C172.529 65.1741 173.129 64.1268 173.414 62.977C173.698 61.8271 173.654 60.6206 173.288 59.4943C172.921 58.3679 172.247 57.3668 171.34 56.6042C170.434 55.8417 169.332 55.3483 168.16 55.18L131.5 49.8C129.521 49.5166 127.642 48.7545 126.024 47.58C124.407 46.4054 123.101 44.8538 122.22 43.06L105.82 9.82C105.295 8.76197 104.485 7.87151 103.482 7.24898C102.478 6.62645 101.321 6.2966 100.14 6.2966C98.9587 6.2966 97.8012 6.62645 96.7977 7.24898C95.7941 7.87151 94.9844 8.76197 94.4597 9.82L77.9997 43.06C77.1121 44.8533 75.8018 46.4038 74.1817 47.5779C72.5615 48.7521 70.6801 49.5147 68.6997 49.8L32.0997 55.12C30.9148 55.2796 29.7993 55.771 28.8817 56.5374C27.9641 57.3039 27.282 58.3142 26.9139 59.4517C26.5459 60.5892 26.507 61.8076 26.8018 62.9662C27.0965 64.1249 27.7129 65.1766 28.5797 66L55.1197 91.8C56.5518 93.1961 57.6225 94.9199 58.2393 96.8225C58.856 98.7251 59.0003 100.749 58.6597 102.72L52.3997 139.24C52.1822 140.412 52.2995 141.621 52.7381 142.73C53.1766 143.838 53.9187 144.8 54.8792 145.506C55.8397 146.212 56.9797 146.632 58.1684 146.72C59.3571 146.807 60.5463 146.558 61.5997 146L94.3997 128.76C96.1595 127.793 98.1318 127.278 100.14 127.26Z" fill="#457FBE"/>
</g>
<defs>
<clipPath id="clip0_168_661">
<rect width="200" height="200" fill="white"/>
</clipPath>
</defs>
</svg>
