<svg width="109" height="48" viewBox="0 0 109 48" fill="none" xmlns="http://www.w3.org/2000/svg">
<g id="Layer_1" clip-path="url(#clip0_168_887)">
<path id="Vector" d="M13.6138 21.1036L11.9998 36.0425C11.9762 36.265 11.7844 36.4349 11.5572 36.4349H4.43457C4.20738 36.4349 4.01854 36.265 3.99493 36.0425L-0.000138624 0.489079C-0.0266938 0.228432 0.179846 0 0.442447 0H5.15746C5.38465 0 5.57349 0.16986 5.60005 0.392434L8.1877 24.4129C8.24376 24.9401 9.01976 24.9372 9.06992 24.4071L11.395 0.398292C11.4156 0.172788 11.6074 0 11.8376 0H16.5909C16.8181 0 17.0099 0.172788 17.0335 0.398292L19.4441 24.5887C19.4972 25.1158 20.2732 25.1187 20.3263 24.5887L22.8225 0.395363C22.8461 0.16986 23.035 0 23.2651 0H27.4018C27.6674 0 27.871 0.228432 27.8415 0.489079L23.8493 36.0425C23.8257 36.265 23.6339 36.4349 23.4097 36.4349H16.5496C16.3224 36.4349 16.1336 36.265 16.107 36.0425L14.4931 21.1036C14.437 20.5794 13.6669 20.5794 13.6108 21.1036H13.6138Z" fill="url(#paint0_linear_168_887)"/>
<path id="Vector_2" d="M48.1446 36.4349H43.226C43.0077 36.4349 42.8188 36.2768 42.7864 36.06L41.9042 30.1999C41.8717 29.9832 41.6858 29.825 41.4645 29.825H35.1503C34.932 29.825 34.7431 29.9832 34.7107 30.1999L33.8284 36.06C33.796 36.2768 33.6101 36.4349 33.3888 36.4349H28.9954C28.721 36.4349 28.5145 36.1918 28.5587 35.9253L34.2887 0.371934C34.3241 0.158145 34.51 0 34.7254 0H42.4117C42.63 0 42.8159 0.158145 42.8483 0.371934L48.5783 35.9253C48.6226 36.1918 48.4131 36.4349 48.1417 36.4349H48.1446ZM36.0178 24.8786H40.5469C40.8183 24.8786 41.0249 24.6384 40.9865 24.3719L38.7234 9.35985C38.6467 8.85906 37.9209 8.85906 37.8471 9.35985L35.584 24.3719C35.5427 24.6384 35.7522 24.8786 36.0237 24.8786H36.0178Z" fill="url(#paint1_linear_168_887)"/>
<path id="Vector_3" d="M59.1735 26.7588L63.083 0.374863C63.1154 0.158145 63.3013 0 63.5226 0H67.919C68.1904 0 68.3999 0.240146 68.3586 0.50665L62.8322 36.06C62.7997 36.2738 62.6138 36.432 62.3925 36.432H54.5529C54.3345 36.432 54.1486 36.2738 54.1132 36.06L48.5868 0.50665C48.5455 0.240146 48.752 0 49.0265 0H53.948C54.1693 0 54.3552 0.161074 54.3876 0.374863L58.2971 26.7558C58.3709 27.2566 59.0997 27.2566 59.1764 26.7558L59.1735 26.7588Z" fill="url(#paint2_linear_168_887)"/>
<path id="Vector_4" d="M77.3228 15.3547H84.354C84.5989 15.3547 84.7966 15.5509 84.7966 15.794V20.1196C84.7966 20.3627 84.5989 20.5589 84.354 20.5589H77.3228C77.0779 20.5589 76.8802 20.7551 76.8802 20.9982V30.7885C76.8802 31.0316 77.0779 31.2278 77.3228 31.2278H86.3987C86.6436 31.2278 86.8413 31.424 86.8413 31.6671V35.9927C86.8413 36.2358 86.6436 36.432 86.3987 36.432H71.5544C71.3095 36.432 71.1118 36.2358 71.1118 35.9927V0.439292C71.1118 0.196217 71.3095 0 71.5544 0H86.3987C86.6436 0 86.8413 0.196217 86.8413 0.439292V4.76486C86.8413 5.00793 86.6436 5.20415 86.3987 5.20415H77.3228C77.0779 5.20415 76.8802 5.40037 76.8802 5.64344V14.9125C76.8802 15.1556 77.0779 15.3518 77.3228 15.3518V15.3547Z" fill="url(#paint3_linear_168_887)"/>
<path id="Vector_5" d="M108.557 36.4349H103.639C103.42 36.4349 103.231 36.2768 103.199 36.06L102.317 30.1999C102.284 29.9832 102.098 29.825 101.877 29.825H95.5629C95.3446 29.825 95.1557 29.9832 95.1233 30.1999L94.241 36.06C94.2086 36.2768 94.0227 36.4349 93.8014 36.4349H89.408C89.1336 36.4349 88.9271 36.1918 88.9713 35.9253L94.7013 0.371934C94.7367 0.158145 94.9226 0 95.138 0H102.824C103.043 0 103.228 0.158145 103.261 0.371934L108.991 35.9253C109.035 36.1918 108.826 36.4349 108.554 36.4349H108.557ZM96.4304 24.8786H100.959C101.231 24.8786 101.437 24.6384 101.399 24.3719L99.136 9.35985C99.0593 8.85906 98.3335 8.85906 98.2597 9.35985L95.9966 24.3719C95.9553 24.6384 96.1648 24.8786 96.4363 24.8786H96.4304Z" fill="url(#paint4_linear_168_887)"/>
<path id="Vector_6" d="M106.675 42.093C106.58 41.8411 106.395 41.642 106.153 41.5307C105.908 41.4194 105.636 41.4077 105.383 41.5014C104.689 41.7562 103.89 42.0696 103.111 42.3771C98.5579 44.1665 91.6771 46.8667 87.8915 45.0011C86.6199 44.3744 85.7789 43.2674 85.3157 41.6156C85.2419 41.3462 85.0531 41.1207 84.8053 40.9948C84.5545 40.8688 84.2623 40.8513 83.9997 40.9479C83.15 41.2584 82.1232 41.6771 81.1318 42.0813C76.3165 44.0435 69.0403 47.0072 65.0748 45.0861C63.7618 44.4505 62.8914 43.3142 62.4104 41.6127C62.3337 41.3462 62.1478 41.1207 61.9 40.9948C61.6492 40.8688 61.3571 40.8513 61.0945 40.9479C60.2624 41.2525 59.2858 41.6508 58.2235 42.0813C53.4082 44.0435 46.1321 47.0072 42.1665 45.0861C40.8535 44.4505 39.9831 43.3142 39.5022 41.6127C39.3546 41.0885 38.8206 40.7839 38.2895 40.9128C36.3539 41.3931 34.4242 42.2834 32.3736 43.2293C28.6736 44.9367 24.8496 46.7027 21.2234 45.7069C19.2613 45.1681 17.4053 43.1063 16.5113 41.4194C16.2753 40.9743 15.7383 40.7722 15.2662 40.9509C13.965 41.437 12.6726 41.9759 11.4098 42.5001C8.72772 43.613 5.95418 44.7668 3.04787 45.4346C2.78527 45.4961 2.56397 45.6542 2.41939 45.8797C2.27777 46.1052 2.23351 46.3746 2.29252 46.6324C2.35448 46.893 2.51381 47.1156 2.74396 47.2562C2.9741 47.3967 3.2426 47.4407 3.4993 47.3792C6.5738 46.6734 9.427 45.4873 12.1858 44.3422C13.1624 43.9351 14.1686 43.5192 15.1806 43.1239C16.3402 44.9455 18.3259 46.9867 20.6864 47.6339C21.5716 47.877 22.501 48 23.4511 48C26.8147 48 30.0721 46.4976 33.2234 45.0421C34.855 44.2895 36.4041 43.5749 37.8853 43.1063C38.5816 44.8576 39.7235 46.1286 41.2843 46.8842C46.0613 49.1978 53.5321 46.155 58.9877 43.9322C59.6369 43.6686 60.2565 43.4167 60.8289 43.1912C61.5282 44.9016 62.6583 46.1404 64.1955 46.8842C68.9725 49.1978 76.4433 46.155 81.8989 43.9322L81.9343 43.9175C82.5687 43.6598 83.1765 43.4109 83.7371 43.1912C84.4158 44.8488 85.5134 46.0584 87.0005 46.7934C91.5857 49.0543 98.6759 46.2721 103.857 44.2368L103.925 44.2104C104.704 43.9058 105.439 43.6159 106.085 43.3787C106.336 43.285 106.536 43.1005 106.651 42.8603C106.763 42.6172 106.775 42.3478 106.681 42.0959L106.675 42.093Z" fill="url(#paint5_linear_168_887)"/>
</g>
<defs>
<linearGradient id="paint0_linear_168_887" x1="104.857" y1="32.0478" x2="-9.80191" y2="13.9507" gradientUnits="userSpaceOnUse">
<stop stop-color="#05303F"/>
<stop offset="0.22" stop-color="#194C66"/>
<stop offset="0.59" stop-color="#3879A2"/>
<stop offset="0.86" stop-color="#4B94C7"/>
<stop offset="1" stop-color="#539FD6"/>
</linearGradient>
<linearGradient id="paint1_linear_168_887" x1="105.333" y1="29.046" x2="-9.32656" y2="10.9459" gradientUnits="userSpaceOnUse">
<stop stop-color="#05303F"/>
<stop offset="0.22" stop-color="#194C66"/>
<stop offset="0.59" stop-color="#3879A2"/>
<stop offset="0.86" stop-color="#4B94C7"/>
<stop offset="1" stop-color="#539FD6"/>
</linearGradient>
<linearGradient id="paint2_linear_168_887" x1="105.943" y1="25.1685" x2="-8.71619" y2="7.07135" gradientUnits="userSpaceOnUse">
<stop stop-color="#05303F"/>
<stop offset="0.22" stop-color="#194C66"/>
<stop offset="0.59" stop-color="#3879A2"/>
<stop offset="0.86" stop-color="#4B94C7"/>
<stop offset="1" stop-color="#539FD6"/>
</linearGradient>
<linearGradient id="paint3_linear_168_887" x1="106.368" y1="22.4771" x2="-8.29099" y2="4.37995" gradientUnits="userSpaceOnUse">
<stop stop-color="#05303F"/>
<stop offset="0.22" stop-color="#194C66"/>
<stop offset="0.59" stop-color="#3879A2"/>
<stop offset="0.86" stop-color="#4B94C7"/>
<stop offset="1" stop-color="#539FD6"/>
</linearGradient>
<linearGradient id="paint4_linear_168_887" x1="106.778" y1="19.8765" x2="-7.87819" y2="1.77637" gradientUnits="userSpaceOnUse">
<stop stop-color="#05303F"/>
<stop offset="0.22" stop-color="#194C66"/>
<stop offset="0.59" stop-color="#3879A2"/>
<stop offset="0.86" stop-color="#4B94C7"/>
<stop offset="1" stop-color="#539FD6"/>
</linearGradient>
<linearGradient id="paint5_linear_168_887" x1="105.973" y1="47.9825" x2="-3.75112" y2="40.2808" gradientUnits="userSpaceOnUse">
<stop stop-color="#05303F"/>
<stop offset="0.22" stop-color="#194C66"/>
<stop offset="0.59" stop-color="#3879A2"/>
<stop offset="0.86" stop-color="#4B94C7"/>
<stop offset="1" stop-color="#539FD6"/>
</linearGradient>
<clipPath id="clip0_168_887">
<rect width="109" height="48" fill="white"/>
</clipPath>
</defs>
</svg>
