<svg width="511" height="511" viewBox="0 0 511 511" fill="none" xmlns="http://www.w3.org/2000/svg">
<path d="M482.268 407.132C326.592 407.926 164.426 408.846 14.2818 408.665C12.4448 408.665 12.1867 411.547 14.0646 411.557C169.605 412.446 326.375 411.046 481.964 410.28C484.047 410.274 484.292 407.122 482.268 407.132Z" fill="#191919"/>
<path d="M396.791 273.779C396.706 275.65 396.155 277.47 395.186 279.073C394.164 280.516 395.475 281.883 396.908 280.634C397.768 279.708 398.374 278.576 398.667 277.347C398.961 276.119 398.933 274.835 398.585 273.62C398.497 273.448 398.359 273.306 398.19 273.212C398.021 273.119 397.827 273.078 397.634 273.095C397.442 273.112 397.258 273.186 397.108 273.308C396.958 273.43 396.847 273.594 396.791 273.779Z" fill="#191919"/>
<path d="M397.192 265.421C399.536 263.611 401.202 261.065 401.922 258.193C402.499 255.922 401.112 254.435 399.796 257.281C398.928 259.624 397.639 261.789 395.992 263.669C394.704 265.115 395.427 266.303 397.192 265.421Z" fill="#191919"/>
<path d="M374.562 243.415C375.035 251.979 372.582 261.528 375.025 268.906C375.375 269.962 377.151 269.775 377.02 268.59C376.325 262.745 376.325 256.838 377.02 250.993C378.313 231.174 372.677 233.453 373.014 235.175C373.884 237.844 374.404 240.613 374.562 243.415Z" fill="#191919"/>
<path d="M394.156 261.418C396.366 258.301 397.621 254.609 397.769 250.792C397.575 247.899 395.408 247.682 395.283 250.342C394.953 253.76 393.872 257.064 392.117 260.015C391.233 261.98 392.421 263.73 394.156 261.418Z" fill="#191919"/>
<path d="M397.887 269.152C396.919 270.383 397.813 271.364 399.216 270.728C401.247 269.374 402.856 267.476 403.858 265.25C404.88 262.054 402.277 261.673 401.891 263.804C401.551 265.684 398.728 268.084 397.887 269.152Z" fill="#191919"/>
<path d="M384.946 253.032C385.695 251.44 390.345 245.367 390.526 246.164C390.273 250.718 388.657 255.091 385.886 258.714C385.222 259.583 386.188 261.213 387.91 259.813C390.685 257.554 393.201 249.419 392.897 245.873C392.874 245.559 392.785 245.253 392.636 244.975C392.486 244.697 392.28 244.454 392.031 244.261C391.781 244.068 391.494 243.93 391.188 243.856C390.882 243.781 390.563 243.772 390.253 243.829C387.598 244.276 384.256 249.315 383.298 252.26C382.994 253.221 384.496 253.985 384.946 253.032Z" fill="#191919"/>
<path d="M315.268 243.415C315.02 243.22 314.734 243.078 314.429 242.997C314.123 242.916 313.805 242.899 313.493 242.945C313.18 242.991 312.88 243.1 312.612 243.266C312.343 243.431 312.11 243.65 311.929 243.908C311.234 245.022 311.719 245.727 312.754 245.209C313.463 244.849 314.267 244.718 315.054 244.833C315.848 244.861 315.904 243.806 315.268 243.415Z" fill="#191919"/>
<path d="M298.873 257.442C298.439 256.459 296.704 257.187 296.878 258.28C297.619 262.92 303.83 265.051 306.436 264.484C307.315 264.292 307.949 263.676 307.287 262.92C306.255 261.742 301.49 263.385 298.873 257.442Z" fill="#191919"/>
<path d="M299.885 238.167C298.935 238.365 298.061 238.827 297.363 239.501C296.664 240.174 296.17 241.03 295.937 241.972C295.707 243.415 296.791 244.271 298.02 242.391C298.283 241.934 298.635 241.533 299.054 241.213C299.473 240.893 299.952 240.659 300.462 240.525C302.47 240.004 301.809 237.95 299.885 238.167Z" fill="#191919"/>
<path d="M304.208 245.73C303.562 245.472 302.843 245.465 302.193 245.711C301.543 245.957 301.008 246.438 300.695 247.059C300.184 248.058 300.623 248.883 301.778 248.203C302.487 247.739 303.317 247.492 304.164 247.493C305.066 247.485 305.176 246.221 304.208 245.73Z" fill="#191919"/>
<path d="M316.15 236.504C315.479 235.916 314.662 235.519 313.785 235.354C312.908 235.189 312.002 235.262 311.163 235.566C309.804 236.144 310.036 237.72 311.674 237.72C312.851 237.545 314.052 237.664 315.172 238.067C316.482 238.553 316.873 237.155 316.15 236.504Z" fill="#191919"/>
<path d="M307.876 253.967C306.599 255.109 308.252 256.034 311.026 254.734C311.532 254.584 311.971 254.265 312.271 253.831C312.571 253.397 312.713 252.873 312.674 252.347C312.163 250.273 311.271 248.311 310.043 246.563C309.021 245.523 308.51 246.898 308.959 248.009C309.567 249.52 310.051 251.077 310.406 252.667C310.467 252.815 308.185 253.686 307.876 253.967Z" fill="#191919"/>
<path d="M155.384 155.781C154.725 165.235 156.705 190.849 147.694 199.663C140.208 206.983 127.313 200.619 122.085 193.506C121.027 192.062 119.819 193.851 120.856 195.269C127.067 203.736 141.128 209.858 149.674 201.485C158.221 193.112 157.114 168.434 157.293 156.157C157.308 155.117 155.469 154.578 155.384 155.781Z" fill="#191919"/>
<path d="M108.871 177.062C110.132 179.356 112.037 181.231 114.351 182.456C113.551 189.501 113.309 196.599 113.628 203.683C113.776 207.369 116.025 207.26 115.928 203.683C115.706 196.692 115.981 189.695 116.75 182.744C117.261 178.248 115.864 182.185 111.574 175.963C108.217 171.094 110.041 165.848 113.02 165.488C116.635 165.061 118.618 169.67 120.251 167.7C123.317 163.113 125.295 157.885 126.033 152.416C134.809 154.46 165.484 158.204 167.27 141.174C169.437 120.502 131.209 120.108 119.832 134.496C113.787 127.454 99.8209 135.175 110.462 163.413C106.5 165.82 105.754 172.333 108.871 177.062Z" fill="#191919"/>
<path d="M153.519 161.262C152.256 160.117 150.624 159.465 148.92 159.425C147.17 159.542 146.72 161.538 148.802 161.98C149.954 162.017 151.07 162.389 152.014 163.05C153.634 164.486 154.998 162.59 153.519 161.262Z" fill="#191919"/>
<path d="M141.291 181.086C139.326 180.956 138.11 183.166 141.682 183.414C143.966 183.572 145.136 182.949 145.701 181.881C146.552 180.274 146.25 173.935 145.701 171.122C145.701 170.874 145.603 170.637 145.428 170.462C145.253 170.287 145.016 170.189 144.768 170.189C144.521 170.189 144.284 170.287 144.109 170.462C143.934 170.637 143.836 170.874 143.836 171.122C144.076 179.522 145.003 181.331 141.291 181.086Z" fill="#191919"/>
<path d="M130.702 183.109C129.951 190.7 139.645 193.909 142.399 191.365C142.527 191.215 142.613 191.035 142.65 190.842C142.686 190.649 142.672 190.45 142.607 190.264C142.543 190.078 142.431 189.913 142.283 189.783C142.135 189.654 141.956 189.566 141.763 189.528C140.745 189.791 139.682 189.833 138.645 189.651C137.609 189.469 136.624 189.067 135.756 188.473C134.889 187.878 134.158 187.105 133.614 186.204C133.07 185.304 132.726 184.297 132.603 183.253C132.604 183.011 132.514 182.778 132.35 182.6C132.186 182.423 131.961 182.314 131.72 182.296C131.479 182.278 131.24 182.352 131.051 182.503C130.862 182.654 130.738 182.87 130.702 183.109Z" fill="#191919"/>
<path d="M150.424 174.116C152.42 173.963 152.261 169.796 150.424 169.908C149.052 169.992 148.472 174.267 150.424 174.116Z" fill="#191919"/>
<path d="M136.618 169.678C134.761 170.023 135.172 173.784 136.618 173.71C138.064 173.636 138.481 169.33 136.618 169.678Z" fill="#191919"/>
<path d="M137.875 160.293C136.73 159.016 131.924 159.905 131.232 163.068C131.058 163.865 131.939 165.455 133.457 163.546C134.975 161.637 136.758 162.606 137.361 162.404C137.565 162.332 137.747 162.211 137.892 162.051C138.037 161.891 138.139 161.698 138.19 161.488C138.241 161.278 138.239 161.059 138.184 160.851C138.129 160.642 138.023 160.45 137.875 160.293Z" fill="#191919"/>
<path d="M118.863 268.705C119.469 254.786 121.159 240.936 123.916 227.281C124.269 225.53 122.051 225.04 121.689 226.769C119.834 235.635 115.472 259.88 116.888 268.7C116.927 268.933 117.047 269.145 117.227 269.298C117.408 269.452 117.636 269.536 117.873 269.537C118.11 269.537 118.339 269.454 118.52 269.302C118.701 269.149 118.823 268.938 118.863 268.705Z" fill="#191919"/>
<path d="M200.005 369.382C200.746 367.044 201.203 333.566 200.654 329.677C200.59 329.459 200.456 329.268 200.274 329.131C200.091 328.995 199.87 328.922 199.642 328.922C199.415 328.922 199.193 328.995 199.011 329.131C198.829 329.268 198.695 329.459 198.631 329.677C197.951 333.349 198.615 350.83 197.547 369.382C197.473 370.654 199.602 370.649 200.005 369.382Z" fill="#191919"/>
<path d="M75.8183 330.63C75.6675 338.04 79.9957 365.337 81.6003 375.235C82.0704 378.13 81.9784 378.557 84.8553 379.4C116.353 388.665 162.039 382.819 195.898 379.863C196.088 379.843 196.272 379.787 196.44 379.697C196.608 379.607 196.757 379.484 196.877 379.336C196.998 379.189 197.088 379.019 197.143 378.836C197.198 378.653 197.217 378.462 197.197 378.272C197.178 378.082 197.122 377.898 197.032 377.73C196.941 377.562 196.819 377.414 196.671 377.293C196.524 377.172 196.354 377.082 196.171 377.027C195.988 376.972 195.797 376.954 195.607 376.973C160.031 380.092 119.424 385.328 84.7685 376.756C82.6555 362.959 79.7351 348.242 77.9287 330.487C77.9006 329.274 75.8438 329.358 75.8183 330.63Z" fill="#191919"/>
<path d="M78.3206 269.847C76.0646 272.236 73.484 282.17 73.0854 285.1C73.0726 285.335 73.1449 285.566 73.2891 285.752C73.4333 285.938 73.6397 286.065 73.8703 286.111C74.1009 286.157 74.3403 286.117 74.5444 286.001C74.7485 285.884 74.9036 285.698 74.9813 285.476C77.3216 275.703 79.777 272.972 79.9533 270.672C80.0146 269.875 78.9236 269.208 78.3206 269.847Z" fill="#191919"/>
<path d="M225.379 329.923C227.101 329.813 227.203 327.725 225.379 327.595C211.388 326.644 197.489 324.648 183.796 321.624C181.601 310.533 181.113 299.172 182.35 287.934C182.57 286.186 180.372 286.258 180.152 287.934C178.727 298.81 178.331 310.52 181.599 321.059C177.347 319.874 164.753 316.716 161.355 314.005C159.826 303.432 159.313 292.738 159.822 282.067C179.217 281.702 198.543 284.471 217.054 290.266C218.097 290.594 218.181 289.124 217.256 288.56C210.869 284.661 197.912 282.313 190.321 281.329C189.859 278.235 187.544 268.664 186.07 267.075C185.968 266.984 185.849 266.914 185.72 266.869C185.59 266.824 185.454 266.806 185.317 266.814C185.181 266.822 185.047 266.857 184.924 266.916C184.801 266.976 184.691 267.059 184.601 267.162C183.579 268.301 186.029 270.994 187.761 281.012C179.027 279.864 170.226 279.294 161.417 279.306C158.077 279.306 157.311 279.306 156.979 282.372C156.326 292.323 156.714 302.315 158.136 312.186C158.629 315.885 159.26 316.529 162.906 318.374C173.32 323.65 212.368 330.766 225.379 329.923Z" fill="#191919"/>
<path d="M116.071 302.19C114.51 320.872 117.233 356.154 120.279 375.365C120.534 377.042 123.156 376.814 122.926 375.11C119.793 350.955 118.199 326.625 118.153 302.267C118.123 302.018 118.004 301.788 117.819 301.618C117.635 301.449 117.395 301.351 117.145 301.341C116.894 301.332 116.648 301.412 116.451 301.568C116.255 301.724 116.12 301.944 116.071 302.19Z" fill="#191919"/>
<path d="M57.195 338.007C65.3792 335.387 72.7764 330.759 78.7107 324.544C80.4276 322.756 81.0357 321.841 79.2881 319.557C75.9448 315.652 73.552 311.026 72.2975 306.041C71.0429 301.056 70.9608 295.848 72.0575 290.826C72.5378 288.194 72.0575 286.694 69.3262 287.428C61.2881 289.589 47.4988 294.648 41.8548 299.819C40.9554 300.642 42.0132 302.162 43.0403 301.554C51.1696 296.452 60.05 292.658 69.3568 290.312C67.0573 303.757 70.6011 311.363 77.7296 321.874C74.6686 325.162 71.1816 328.026 67.3614 330.39C55.3324 320.558 52.2128 307.962 52.9026 302.081C53.0431 300.895 50.5878 299.015 50.6185 302.441C50.6688 308.098 52.0104 313.67 54.5409 318.73C57.0715 323.79 60.7241 328.205 65.2203 331.639C62.8632 332.949 60.401 334.06 57.8593 334.961C42.6673 340.326 34.757 336.882 31.6322 321.225C26.6628 296.327 47.0491 258.572 62.9795 240.112C75.7826 225.272 80.1568 224.848 100.081 217.975C101.877 222.977 104.657 227.569 108.257 231.478C111.663 235.188 113.06 230.357 123.017 222.63C126.409 225.83 129.498 229.337 132.243 233.106C133.421 234.57 134.798 234.447 136.587 233.727C147.055 228.889 156.484 222.063 164.349 213.629C166.301 215.494 190.666 223.665 205.528 238.339C219.277 251.916 237.951 285.213 240.488 304.981C240.708 306.685 242.747 306.222 242.532 304.503C239.977 284.589 222.286 251.198 207.273 236.54C195.967 225.489 180.382 217.579 165.737 211.953C165.882 211.771 165.989 211.562 166.051 211.339C166.114 211.115 166.131 210.88 166.101 210.65C166.071 210.419 165.995 210.197 165.878 209.997C165.76 209.796 165.604 209.621 165.417 209.482C162.927 207.207 160.253 205.141 157.423 203.307C154.824 201.664 154.73 201.595 152.333 203.685C142.409 212.336 137.151 215.351 123.242 219.14C118.72 216.122 114.712 212.397 111.371 208.108C109.933 206.266 109.81 206.01 107.628 207.139C104.59 208.713 98.4736 213.197 99.2554 215.453C78.123 222.802 74.2982 222.699 60.8972 238.471C44.9106 257.289 24.2713 294.758 28.8984 320.712C31.8494 337.26 40.3116 343.392 57.195 338.007ZM155.138 204.891C157.981 206.689 160.67 208.721 163.176 210.964C155.298 219.944 145.492 227.027 134.491 231.683C131.702 227.816 128.481 224.28 124.89 221.143C136.343 218.798 146.858 213.151 155.138 204.899V204.891ZM109.404 209.143C112.456 213.755 116.422 217.692 121.057 220.709C117.307 223.378 113.932 226.539 111.024 230.106C106.896 225.856 103.679 220.809 101.57 215.272C103.729 212.716 106.391 210.632 109.391 209.15L109.404 209.143Z" fill="#191919"/>
<path d="M138.338 304.214C138.338 303.782 138.179 303.205 137.701 303.072C135.343 302.426 136.255 305.116 128.577 304.909C128.319 304.864 128.054 304.917 127.833 305.057C127.611 305.197 127.45 305.414 127.38 305.666C127.31 305.918 127.336 306.188 127.453 306.422C127.571 306.656 127.771 306.838 128.015 306.933C131.738 308.427 138.302 306.327 138.338 304.214Z" fill="#191919"/>
<path d="M133.726 275.051C132.481 274.849 132.394 276.717 133.47 277.133C141.23 280.156 144.36 278.186 151.631 284.262C152.513 285 154.206 284.364 153.813 282.984C152.597 278.679 141.937 276.385 133.726 275.051Z" fill="#191919"/>
<path d="M139.609 312.326C141.142 311.215 140.174 309.219 138.293 310.057C136.254 311.117 133.891 311.375 131.671 310.78C130.485 310.563 130.212 311.91 131.223 312.776C133.135 314.411 137.672 313.731 139.609 312.326Z" fill="#191919"/>
<path d="M125.253 298.706C124.231 298.948 124.415 300.888 125.509 300.819C137.681 300.052 141.293 287.05 138.767 284.812C138.597 284.661 138.379 284.578 138.152 284.578C137.926 284.578 137.707 284.661 137.538 284.812C135.259 286.825 137.849 295.739 125.253 298.706Z" fill="#191919"/>
<path d="M136.342 318.609C145.029 320.837 154.692 314.503 154.482 310.99C154.482 310.121 153.399 309.255 152.561 309.876C151.723 310.497 148.874 317.25 136.656 316.585C136.414 316.594 136.182 316.686 136 316.847C135.819 317.008 135.699 317.228 135.662 317.467C135.625 317.707 135.673 317.952 135.797 318.16C135.921 318.369 136.113 318.527 136.342 318.609Z" fill="#191919"/>
<path d="M77.2936 289.063C80.9421 284.344 89.6751 275.266 96.3487 279.029C97.8664 279.885 98.9344 277.588 97.4065 276.73C89.5831 272.343 78.5838 280.882 75.7171 287.226C74.6057 289.679 76.6114 289.944 77.2936 289.063Z" fill="#191919"/>
<path d="M101.366 306.572C98.5225 306.265 95.7484 305.493 93.1544 304.288C92.1324 304.112 89.5774 306.82 96.3635 308.376C104.054 310.147 102.71 306.659 101.366 306.572Z" fill="#191919"/>
<path d="M91.6058 310.591C88.8438 309.247 88.8796 313.026 93.6166 314.235C95.0652 314.605 99.419 314.549 99.0102 312.788C98.6371 311.199 97.1731 313.297 91.6058 310.591Z" fill="#191919"/>
<path d="M94.514 318.609C95.7021 317.996 95.1042 316.172 93.8472 316.565C89.5037 317.894 86.4862 317.763 80.3874 315.495C80.1725 315.43 79.9423 315.439 79.7326 315.518C79.5228 315.598 79.3451 315.744 79.2268 315.935C79.1085 316.126 79.0563 316.35 79.0781 316.573C79.0999 316.797 79.1946 317.007 79.3476 317.171C81.5613 318.642 84.1042 319.543 86.7502 319.794C89.3962 320.045 92.0633 319.638 94.514 318.609Z" fill="#191919"/>
<path d="M105.602 300.803C97.6512 296.682 95.8014 294.224 93.6603 289.873C93.2132 288.961 91.1053 289.303 91.8386 291.766C93.3128 296.689 100.239 300.788 104.562 303.008C104.71 303.097 104.874 303.154 105.045 303.175C105.216 303.196 105.389 303.182 105.554 303.132C105.718 303.082 105.871 302.998 106.001 302.885C106.131 302.773 106.236 302.634 106.309 302.478C106.383 302.323 106.422 302.153 106.426 301.981C106.429 301.809 106.397 301.638 106.33 301.48C106.263 301.321 106.164 301.178 106.039 301.06C105.914 300.942 105.765 300.852 105.602 300.795V300.803Z" fill="#191919"/>
<path d="M388.056 346.333C383.728 351.734 381.288 362.304 387.593 366.576C394.561 371.295 403.266 366.418 407.522 360.271C412.377 353.288 413.046 343.203 407.522 339.667C401.444 335.771 392.997 340.168 388.056 346.333ZM407.66 354.026C404.85 361.254 395.728 368.49 389.4 364.32C384.466 361.07 386.845 351.773 390.222 347.807C393.219 344.281 398.565 340.227 403.583 341.129C409.597 342.209 409.324 349.759 407.66 354.026Z" fill="#191919"/>
<path d="M325.593 393.005C325.447 393.005 281.478 393.693 273.757 394.004C267.88 394.242 266.529 394.684 266.529 400.019C266.348 401.241 266.6 402.489 267.242 403.545C267.883 404.601 268.874 405.4 270.042 405.803C271.038 406.026 271.488 404.761 270.824 404.038C270.29 403.583 269.879 403.002 269.626 402.348C269.374 401.694 269.288 400.988 269.378 400.292C269.551 397.226 269.464 396.899 273.555 396.766C290.139 396.22 305.858 396.797 323.091 396.013C326.763 395.846 327.79 396.174 328.311 392.543C331.584 369.671 334.77 340.232 338.677 315.103C340.511 303.304 350.836 300.611 361.508 300.269C384.741 299.518 417.016 298.948 440.524 298.59C460.594 298.284 458.049 306.427 456.95 318.834C454.395 347.751 451.549 373.069 447.855 397.952C447.615 399.554 446.934 401.057 445.89 402.295C445.738 402.381 445.606 402.498 445.502 402.638C445.399 402.779 445.326 402.939 445.289 403.11C445.252 403.28 445.251 403.456 445.286 403.627C445.322 403.798 445.393 403.959 445.495 404.1C445.598 404.242 445.729 404.36 445.88 404.447C446.031 404.534 446.198 404.589 446.372 404.607C446.545 404.625 446.721 404.606 446.886 404.551C447.052 404.497 447.204 404.408 447.333 404.291C449.213 402.428 450.401 399.98 450.703 397.351C453.826 372.111 457.173 347.6 459.495 322.094C461.337 301.853 461.388 295.65 442.591 295.563C420.485 295.461 380.42 297.397 363.156 297.428C348.567 297.451 338.373 300.834 336.132 315.847C332.312 341.509 328.671 367.892 325.593 393.005Z" fill="#191919"/>
<path d="M199.123 382.857C164.631 387.382 102.71 391.618 82.4414 381.758C82.122 386.613 82.1655 398.197 82.0352 404.631C92.5899 404.5 192.283 404.081 199.151 403.808C199.238 400.525 199.545 388.003 199.123 382.857Z" fill="#191919"/>
<path d="M320.33 247.524C320.179 242.981 319.788 238.448 319.16 233.946C318.971 233.05 317.317 232.907 317.422 233.946C318.329 242.889 320.332 266.395 315.256 272.696C312.501 276.114 306.116 277.192 295.214 273.766C293.771 273.311 293.398 274.788 294.724 275.442C298.722 277.385 303.117 278.375 307.562 278.334C307.972 282.462 308.88 286.525 310.266 290.435C310.654 291.521 312.379 291.061 312.054 289.924C311.318 287.369 310.763 284.765 310.393 282.131C326.717 280.685 343.141 268.209 339.137 266.689C335.133 265.169 326.503 259.568 320.33 247.524Z" fill="#191919"/>
<path d="M281.767 286.142V291.071C281.744 291.342 281.829 291.611 282.005 291.819C282.18 292.027 282.431 292.157 282.702 292.18C282.973 292.203 283.242 292.117 283.45 291.942C283.658 291.767 283.788 291.516 283.811 291.245C284.434 283.221 284.309 275.157 283.435 267.156C283.116 264.261 283.594 263.531 281.136 263.109C277.635 262.506 276.355 258.766 275.801 255.143C275.29 251.775 276.452 248.244 279.329 248.086C281.974 247.948 282.801 251.239 284.041 247.406C284.744 243.897 284.68 240.277 283.854 236.795C290.983 236.795 317.491 235.96 332.841 221.626C334.98 219.631 324.831 220.022 319.928 212.684C310.36 198.353 282.697 189.724 273.067 214.608C260.803 209.72 254.071 221.102 257.916 252.736C259.615 266.717 248.329 278.761 248.207 280.207C248.084 281.653 263.32 287.458 281.767 286.142Z" fill="#191919"/>
<path d="M147.933 252.973C145.499 252.397 143.108 251.648 140.779 250.733C143.122 247.567 145.58 244.473 147.721 241.174C147.897 240.95 147.977 240.664 147.943 240.381C147.909 240.097 147.763 239.839 147.539 239.663C147.314 239.487 147.029 239.407 146.745 239.441C146.462 239.476 146.204 239.621 146.027 239.846C142.972 243.243 140.111 246.81 137.458 250.531C137.235 250.842 137.144 251.229 137.206 251.607C137.268 251.985 137.477 252.323 137.787 252.547C139.719 253.47 141.734 254.208 143.804 254.752C140.378 257.225 135.273 260.089 132.036 261.982C129.992 263.178 130.587 265.025 132.787 264.236C138.119 261.677 143.283 258.779 148.245 255.562C149.63 254.867 149.722 253.395 147.933 252.973Z" fill="#38A1FF"/>
<path d="M104.938 263.891C103.247 259.259 101.213 254.721 99.1539 250.24C98.6148 249.064 97.3654 248.359 96.5094 250.155C95.8348 251.619 95.0112 253.01 94.0515 254.305C91.8721 250.609 90.0097 246.735 88.4842 242.725C88.4339 242.593 88.358 242.473 88.261 242.37C88.164 242.267 88.0477 242.185 87.9187 242.127C87.7898 242.069 87.6507 242.037 87.5095 242.033C87.3682 242.029 87.2276 242.053 87.0955 242.103C86.9635 242.154 86.8427 242.229 86.74 242.326C86.6373 242.424 86.5546 242.54 86.4969 242.669C86.4391 242.798 86.4073 242.937 86.4033 243.078C86.3992 243.219 86.4231 243.36 86.4734 243.492C88.1237 248.403 90.164 253.175 92.5747 257.762C92.6645 257.997 92.8141 258.205 93.0089 258.365C93.2037 258.525 93.4368 258.632 93.6853 258.674C93.9338 258.716 94.189 258.693 94.4257 258.606C94.6625 258.52 94.8726 258.373 95.0352 258.181C96.0555 256.822 96.9411 255.367 97.6796 253.837C99.5637 257.38 101.263 261.018 102.769 264.737C102.806 264.903 102.878 265.058 102.981 265.194C103.084 265.329 103.215 265.44 103.365 265.52C103.514 265.6 103.68 265.647 103.849 265.657C104.019 265.667 104.189 265.64 104.347 265.578C104.505 265.517 104.648 265.422 104.766 265.299C104.884 265.177 104.974 265.031 105.03 264.871C105.087 264.71 105.108 264.54 105.092 264.371C105.076 264.202 105.023 264.038 104.938 263.891Z" fill="#38A1FF"/>
<path d="M61.3191 338.05C48.7025 355.289 49.7526 378.674 26.6171 396.636C24.0289 398.644 23.7351 402.748 28.9881 398.632C49.5559 382.512 51.7558 360.797 63.3274 339.356C64.0325 338.04 62.0856 337.005 61.3191 338.05Z" fill="#38A1FF"/>
<path d="M212.698 380.282C174.45 363.825 172.03 330.592 153.422 317.257C152.308 316.46 151.186 318.131 151.976 319.079C173.356 344.816 175.788 368.516 211.763 383.332C213.692 384.124 214.538 381.074 212.698 380.282Z" fill="#38A1FF"/>
<path d="M436.68 237.104C435.505 253.942 435.553 274.479 421.846 288.478C420.415 289.937 422.525 292.336 423.941 290.861C438.154 276.071 439.628 257.462 439.398 237.278C439.41 237.099 439.386 236.921 439.328 236.751C439.271 236.582 439.18 236.426 439.062 236.291C438.944 236.157 438.8 236.047 438.64 235.969C438.479 235.89 438.305 235.843 438.126 235.832C437.948 235.82 437.769 235.844 437.599 235.902C437.43 235.96 437.274 236.05 437.14 236.169C437.005 236.287 436.896 236.43 436.817 236.591C436.738 236.751 436.691 236.926 436.68 237.104Z" fill="#38A1FF"/>
<path d="M433.759 115.601C433.401 111.409 433.391 103.23 432.586 99.7603C432.33 98.677 430.603 98.401 430.302 99.6172C429.775 105.142 429.911 110.71 430.708 116.202C430.951 118.103 433.94 117.755 433.759 115.601Z" fill="#38A1FF"/>
<path d="M369.963 169.967C372.104 170.125 381.067 168.388 384.335 168.071C385.998 167.912 385.784 165.056 384.046 165.181C381.461 165.362 371.844 166.336 369.457 167.769C369.259 167.908 369.106 168.103 369.019 168.329C368.933 168.555 368.915 168.802 368.969 169.038C369.024 169.274 369.147 169.489 369.324 169.654C369.501 169.82 369.724 169.928 369.963 169.967Z" fill="#38A1FF"/>
<path d="M386.278 124.999C389.599 127.883 391.316 129.199 393.506 131.202C395.069 132.631 397.361 131.121 396.022 129.483C393.275 126.555 390.232 123.918 386.942 121.616C384.272 119.232 382.757 121.953 386.278 124.999Z" fill="#38A1FF"/>
<path d="M473.185 111.263C470.525 113.159 466.287 120.305 464.728 123.034C464.61 123.211 464.53 123.41 464.492 123.619C464.455 123.829 464.46 124.044 464.509 124.251C464.558 124.458 464.649 124.652 464.777 124.823C464.904 124.993 465.066 125.135 465.25 125.241C465.435 125.346 465.64 125.412 465.851 125.435C466.063 125.458 466.277 125.438 466.48 125.374C466.683 125.311 466.871 125.207 467.032 125.068C467.193 124.929 467.324 124.758 467.416 124.567C469.81 120.52 472.449 116.608 474.905 112.596C475.37 111.833 473.982 110.685 473.185 111.263Z" fill="#38A1FF"/>
<path d="M400.475 163.965C401.497 177.933 411.587 189.875 422.494 197.885C423.938 198.945 425.049 197.162 423.81 196.007C415.568 188.245 406.99 180.1 404.364 168.536C395.099 127.75 467.35 121.963 467.766 159.432C467.917 173.125 459.079 184.423 450.98 194.64C449.72 196.229 451.547 197.55 452.888 196.086C461.254 186.945 469.68 175.846 470.773 162.83C474.481 119.39 397.361 121.746 400.475 163.965Z" fill="#38A1FF"/>
<path d="M496.668 151.66C491.637 152.245 486.548 152.915 481.594 153.817C480.15 154.072 480.74 156.318 482.056 156.216C487.117 155.826 492.168 155.257 497.21 154.509C498.922 154.256 498.273 151.476 496.668 151.66Z" fill="#38A1FF"/>
<path d="M447.681 167.552C459.5 157.161 445.553 147.135 440.54 159.136C439.309 162.091 438.341 165.15 437.647 168.275C434.914 168.761 432.13 168.901 429.361 168.694C428.293 164.719 426.832 158.219 422.718 156.43C414.305 152.771 409.895 168.778 426.868 171.553C428.78 179.601 430.272 187.743 431.336 195.946C431.37 196.2 431.495 196.434 431.688 196.604C431.881 196.773 432.129 196.866 432.385 196.866C432.642 196.866 432.89 196.773 433.083 196.604C433.276 196.434 433.401 196.2 433.434 195.946C433.296 187.84 432.203 179.779 430.179 171.929C432.464 172.021 434.752 171.914 437.019 171.609C435.929 179.573 436.37 187.67 438.319 195.468C438.751 197.448 440.938 196.912 440.575 195.003C439.063 187.072 439.029 178.93 440.473 170.986C443.138 170.502 445.626 169.317 447.681 167.552ZM447.768 157.227C451.799 159.879 445.499 166.425 441.232 167.447C443.59 157.978 446.278 156.246 447.768 157.227ZM418.85 163.561C417.187 160.321 420.064 157.444 422.711 160.178C424.36 162.57 425.466 165.293 425.951 168.158C424.513 167.912 423.141 167.378 421.916 166.587C420.691 165.797 419.638 164.767 418.822 163.559L418.85 163.561Z" fill="#38A1FF"/>
<path d="M493.472 192.491C489.144 189.999 484.583 187.937 479.854 186.334C478.638 186.002 477.874 187.867 478.883 188.559C482.956 191.311 487.841 192.708 492.085 195.202C494.77 196.794 496.783 194.747 493.472 192.491Z" fill="#38A1FF"/>
<path d="M399.507 197.64C397.627 197.995 391.247 205.591 390.309 207.349C388.421 210.926 391.094 211.299 391.684 210.241C394.362 205.435 399.111 202.155 400.504 200.118C401.158 199.17 401.01 197.356 399.507 197.64Z" fill="#38A1FF"/>
<path d="M423.276 200.806C422.553 220.267 426.73 232.212 437.344 232.232C450.862 232.253 452.323 216.026 451.411 199.817C442.082 201 432.665 201.331 423.276 200.806ZM444.891 218.532C441.223 220.989 437.015 222.522 432.627 223.001C431.007 223.029 430.695 221.233 432.236 220.847C436.208 219.897 439.975 218.236 443.355 215.944C443.694 215.799 444.074 215.782 444.424 215.896C444.774 216.01 445.07 216.248 445.258 216.565C445.446 216.881 445.513 217.256 445.445 217.618C445.377 217.98 445.181 218.305 444.891 218.532ZM445.325 208.89C442.165 211.409 431.459 214.094 429.911 214C428.769 214 428.071 212.766 429.203 212.02C431.209 210.696 437.635 209.585 443.662 206.399C445.698 205.325 447.272 207.336 445.336 208.89H445.325Z" fill="#38A1FF"/>
<path d="M112.164 272.826C101.433 273.337 97.2117 277.872 97.8351 286.112C98.4585 294.352 103.242 296.235 112.192 296.452C110.161 292.847 109.092 288.78 109.087 284.643C109.083 280.505 110.142 276.436 112.164 272.826Z" fill="#38A1FF"/>
<path d="M131.152 285.187C131.311 275.892 122.465 273.217 115.725 272.826C113.481 276.352 112.29 280.444 112.29 284.624C112.29 288.803 113.481 292.896 115.725 296.421C122.953 296.117 128.996 294.572 130.631 288.601C132.251 289.293 132.982 290.9 134.231 289.799C136.147 288.1 132.481 285.882 131.152 285.187Z" fill="#38A1FF"/>
<path d="M304.758 314.914C301.201 309.84 287.493 300.123 276.116 292.129C266.53 295.019 248.732 303.407 239.13 313.195C229.528 322.983 213.733 368.656 217.788 391.271C220.598 406.943 232.696 404.891 264.056 404.602C263.361 402.418 262.684 394.61 266.645 392.282C270.605 389.955 309.385 390.238 323.034 390.361C323.598 387.28 324.697 378.794 325.926 368.541C302.185 367.095 272.082 370.902 248.509 372.808C247.063 372.923 246.963 371.579 248.32 371.362C251.526 370.686 254.758 370.14 258.009 369.727C258.4 363.945 260.418 344.943 262.577 339.363C263.032 338.195 264.299 338.625 264.095 339.769C262.417 349.586 261.316 359.492 260.799 369.438C282.525 366.876 304.393 365.717 326.268 365.968C333.563 307.474 332.533 302.04 345.86 297.188C342.027 295.251 323.665 289.671 314.76 289.671C314.071 292.995 308.863 309.434 304.758 314.914Z" fill="#38A1FF"/>
<path d="M367.855 294.592C375.605 294.319 389.759 293.956 394.762 293.682C395.11 291.672 395.702 288.572 396.86 283.863C393.968 281.819 378.438 273.858 373.865 271.855C373.51 273.403 369.317 288.846 367.855 294.592Z" fill="#38A1FF"/>
</svg>
