<svg width="200" height="200" viewBox="0 0 200 200" fill="none" xmlns="http://www.w3.org/2000/svg">
<g id="punctuality" clip-path="url(#clip0_168_1021)">
<g id="Layer 2">
<g id="Layer 1">
<g id="punctuality_2">
<path id="Vector" d="M151.7 38.08H16.3798C9.17805 38.08 3.33984 43.9182 3.33984 51.12V134.22C3.33984 141.422 9.17805 147.26 16.3798 147.26H151.7C158.902 147.26 164.74 141.422 164.74 134.22V51.12C164.74 43.9182 158.902 38.08 151.7 38.08Z" fill="white"/>
<path id="Vector_2" d="M151.7 150.26H16.3599C12.1164 150.26 8.04674 148.574 5.04615 145.574C2.04557 142.573 0.359863 138.503 0.359863 134.26V51.1C0.359863 46.8565 2.04557 42.7869 5.04615 39.7863C8.04674 36.7857 12.1164 35.1 16.3599 35.1H151.7C155.943 35.1 160.013 36.7857 163.014 39.7863C166.014 42.7869 167.7 46.8565 167.7 51.1V134.22C167.705 136.324 167.295 138.409 166.493 140.355C165.692 142.301 164.514 144.07 163.028 145.56C161.541 147.05 159.776 148.232 157.832 149.038C155.888 149.845 153.804 150.26 151.7 150.26ZM16.3599 41.08C13.7077 41.08 11.1642 42.1335 9.2888 44.0089C7.41343 45.8843 6.35986 48.4278 6.35986 51.08V134.22C6.35986 136.872 7.41343 139.416 9.2888 141.291C11.1642 143.166 13.7077 144.22 16.3599 144.22H151.7C154.352 144.22 156.896 143.166 158.771 141.291C160.646 139.416 161.7 136.872 161.7 134.22V51.1C161.7 48.4478 160.646 45.9043 158.771 44.0289C156.896 42.1535 154.352 41.1 151.7 41.1L16.3599 41.08Z" fill="#457FBE"/>
<path id="Vector_3" d="M33.68 114.18H27.58C25.0616 114.18 23.02 116.222 23.02 118.74V124.84C23.02 127.358 25.0616 129.4 27.58 129.4H33.68C36.1984 129.4 38.24 127.358 38.24 124.84V118.74C38.24 116.222 36.1984 114.18 33.68 114.18Z" fill="white"/>
<path id="Vector_4" d="M33.6801 131.4H27.6801C25.9384 131.4 24.2678 130.71 23.0344 129.48C21.801 128.25 21.1054 126.582 21.1001 124.84V118.74C21.1054 116.998 21.801 115.33 23.0344 114.1C24.2678 112.871 25.9384 112.18 27.6801 112.18H33.6801C35.4218 112.18 37.0924 112.871 38.3258 114.1C39.5592 115.33 40.2548 116.998 40.2601 118.74V124.84C40.2548 126.582 39.5592 128.25 38.3258 129.48C37.0924 130.71 35.4218 131.4 33.6801 131.4ZM27.6801 116.18C27.3422 116.177 27.0072 116.242 26.6943 116.369C26.3814 116.497 26.0968 116.685 25.857 116.923C25.6171 117.161 25.4268 117.444 25.2969 117.756C25.167 118.068 25.1001 118.402 25.1001 118.74V124.84C25.1049 125.507 25.3681 126.147 25.8342 126.624C26.3003 127.101 26.9332 127.379 27.6001 127.4H33.6001C34.2809 127.4 34.9341 127.131 35.4174 126.651C35.9007 126.172 36.1748 125.521 36.1801 124.84V118.74C36.1801 118.402 36.1132 118.068 35.9833 117.756C35.8534 117.444 35.6631 117.161 35.4232 116.923C35.1834 116.685 34.8988 116.497 34.5859 116.369C34.273 116.242 33.938 116.177 33.6001 116.18H27.6801Z" fill="#457FBE"/>
<path id="Vector_5" d="M60.3802 114.18H54.2802C51.7618 114.18 49.7202 116.222 49.7202 118.74V124.84C49.7202 127.358 51.7618 129.4 54.2802 129.4H60.3802C62.8986 129.4 64.9402 127.358 64.9402 124.84V118.74C64.9402 116.222 62.8986 114.18 60.3802 114.18Z" fill="white"/>
<path id="Vector_6" d="M60.3802 131.4H54.2802C52.5404 131.4 50.8718 130.709 49.6416 129.479C48.4114 128.248 47.7202 126.58 47.7202 124.84V118.74C47.7202 117 48.4114 115.332 49.6416 114.101C50.8718 112.871 52.5404 112.18 54.2802 112.18H60.3802C62.12 112.18 63.7886 112.871 65.0188 114.101C66.2491 115.332 66.9402 117 66.9402 118.74V124.84C66.9402 125.702 66.7705 126.555 66.4409 127.35C66.1112 128.146 65.628 128.87 65.0188 129.479C64.4097 130.088 63.6865 130.571 62.8906 130.901C62.0947 131.23 61.2417 131.4 60.3802 131.4ZM54.2802 116.18C53.6013 116.18 52.9501 116.45 52.47 116.93C51.9899 117.41 51.7202 118.061 51.7202 118.74V124.84C51.7254 125.517 51.9968 126.165 52.4758 126.644C52.9548 127.123 53.6029 127.395 54.2802 127.4H60.3802C61.0592 127.4 61.7103 127.13 62.1904 126.65C62.6705 126.17 62.9402 125.519 62.9402 124.84V118.74C62.9402 118.061 62.6705 117.41 62.1904 116.93C61.7103 116.45 61.0592 116.18 60.3802 116.18H54.2802Z" fill="#457FBE"/>
<path id="Vector_7" d="M87.0799 114.18H80.9799C78.4615 114.18 76.4199 116.222 76.4199 118.74V124.84C76.4199 127.358 78.4615 129.4 80.9799 129.4H87.0799C89.5983 129.4 91.6399 127.358 91.6399 124.84V118.74C91.6399 116.222 89.5983 114.18 87.0799 114.18Z" fill="white"/>
<path id="Vector_8" d="M87.08 131.4H81.08C79.3402 131.4 77.6716 130.709 76.4414 129.479C75.2112 128.248 74.52 126.58 74.52 124.84V118.74C74.52 117 75.2112 115.332 76.4414 114.101C77.6716 112.871 79.3402 112.18 81.08 112.18H87.08C88.8198 112.18 90.4884 112.871 91.7186 114.101C92.9489 115.332 93.64 117 93.64 118.74V124.84C93.64 125.702 93.4703 126.555 93.1407 127.35C92.811 128.146 92.3278 128.87 91.7186 129.479C91.1095 130.088 90.3863 130.571 89.5904 130.901C88.7945 131.23 87.9415 131.4 87.08 131.4ZM81.08 116.18C80.4011 116.18 79.7499 116.45 79.2698 116.93C78.7897 117.41 78.52 118.061 78.52 118.74V124.84C78.52 125.519 78.7897 126.17 79.2698 126.65C79.7499 127.13 80.4011 127.4 81.08 127.4H87.08C87.7574 127.395 88.4055 127.123 88.8844 126.644C89.3634 126.165 89.6348 125.517 89.64 124.84V118.74C89.64 118.061 89.3703 117.41 88.8902 116.93C88.4101 116.45 87.759 116.18 87.08 116.18H81.08Z" fill="#457FBE"/>
<path id="Vector_9" d="M113.76 114.18H107.66C105.142 114.18 103.1 116.222 103.1 118.74V124.84C103.1 127.358 105.142 129.4 107.66 129.4H113.76C116.279 129.4 118.32 127.358 118.32 124.84V118.74C118.32 116.222 116.279 114.18 113.76 114.18Z" fill="white"/>
<path id="Vector_10" d="M113.76 131.4H107.76C106.019 131.4 104.348 130.71 103.114 129.48C101.881 128.25 101.185 126.582 101.18 124.84V118.74C101.185 116.998 101.881 115.33 103.114 114.1C104.348 112.871 106.019 112.18 107.76 112.18H113.76C115.502 112.18 117.172 112.871 118.406 114.1C119.639 115.33 120.335 116.998 120.34 118.74V124.84C120.335 126.582 119.639 128.25 118.406 129.48C117.172 130.71 115.502 131.4 113.76 131.4ZM107.76 116.18C107.422 116.177 107.087 116.242 106.774 116.369C106.461 116.497 106.177 116.685 105.937 116.923C105.697 117.161 105.507 117.444 105.377 117.756C105.247 118.068 105.18 118.402 105.18 118.74V124.84C105.185 125.521 105.46 126.172 105.943 126.651C106.426 127.131 107.079 127.4 107.76 127.4H113.76C114.441 127.4 115.094 127.131 115.577 126.651C116.061 126.172 116.335 125.521 116.34 124.84V118.74C116.34 118.402 116.273 118.068 116.143 117.756C116.014 117.444 115.823 117.161 115.583 116.923C115.343 116.685 115.059 116.497 114.746 116.369C114.433 116.242 114.098 116.177 113.76 116.18H107.76Z" fill="#457FBE"/>
<path id="Vector_11" d="M33.68 89H27.58C25.0616 89 23.02 91.0416 23.02 93.56V99.66C23.02 102.178 25.0616 104.22 27.58 104.22H33.68C36.1984 104.22 38.24 102.178 38.24 99.66V93.56C38.24 91.0416 36.1984 89 33.68 89Z" fill="white"/>
<path id="Vector_12" d="M33.6801 106.22H27.6801C25.9384 106.22 24.2678 105.53 23.0344 104.3C21.801 103.07 21.1054 101.402 21.1001 99.66V93.66C21.0895 92.7959 21.2493 91.9382 21.5702 91.1358C21.8912 90.3334 22.367 89.6021 22.9706 88.9837C23.5742 88.3652 24.2937 87.8717 25.0881 87.5314C25.8824 87.191 26.736 87.0104 27.6001 87H33.6001C35.3452 87 37.0189 87.6932 38.2529 88.9272C39.4869 90.1612 40.1801 91.8349 40.1801 93.58V99.58C40.1961 101.322 39.5209 102.999 38.3024 104.243C37.084 105.488 35.4218 106.199 33.6801 106.22ZM27.6801 91C26.9958 91 26.3396 91.2718 25.8558 91.7557C25.3719 92.2395 25.1001 92.8957 25.1001 93.58V99.58C25.1001 99.9179 25.167 100.252 25.2969 100.564C25.4268 100.876 25.6171 101.159 25.857 101.397C26.0968 101.635 26.3814 101.823 26.6943 101.951C27.0072 102.078 27.3422 102.143 27.6801 102.14H33.6801C34.018 102.143 34.353 102.078 34.6659 101.951C34.9788 101.823 35.2634 101.635 35.5032 101.397C35.7431 101.159 35.9334 100.876 36.0633 100.564C36.1932 100.252 36.2601 99.9179 36.2601 99.58V93.58C36.2601 92.8957 35.9883 92.2395 35.5044 91.7557C35.0206 91.2718 34.3644 91 33.6801 91H27.6801Z" fill="#457FBE"/>
<path id="Vector_13" d="M60.3802 89H54.2802C51.7618 89 49.7202 91.0416 49.7202 93.56V99.66C49.7202 102.178 51.7618 104.22 54.2802 104.22H60.3802C62.8986 104.22 64.9402 102.178 64.9402 99.66V93.56C64.9402 91.0416 62.8986 89 60.3802 89Z" fill="white"/>
<path id="Vector_14" d="M60.3798 106.22H54.2798C52.5399 106.22 50.8714 105.529 49.6411 104.299C48.4109 103.068 47.7198 101.4 47.7198 99.66V93.66C47.7171 92.7968 47.8849 91.9416 48.2134 91.1434C48.5418 90.3452 49.0246 89.6197 49.634 89.0084C50.2435 88.3971 50.9675 87.9121 51.7647 87.5812C52.5619 87.2503 53.4166 87.08 54.2798 87.08H60.3798C61.2429 87.08 62.0976 87.2503 62.8948 87.5812C63.692 87.9121 64.416 88.3971 65.0255 89.0084C65.6349 89.6197 66.1177 90.3452 66.4462 91.1434C66.7747 91.9416 66.9424 92.7968 66.9398 93.66V99.66C66.9398 101.4 66.2486 103.068 65.0184 104.299C63.7881 105.529 62.1196 106.22 60.3798 106.22ZM54.2798 91C53.599 91.0052 52.9479 91.2794 52.4683 91.7627C51.9888 92.2459 51.7197 92.8991 51.7198 93.58V99.58C51.7198 100.259 51.9895 100.91 52.4696 101.39C52.9497 101.87 53.6008 102.14 54.2798 102.14H60.3798C61.0587 102.14 61.7099 101.87 62.1899 101.39C62.67 100.91 62.9398 100.259 62.9398 99.58V93.58C62.9424 93.2421 62.8781 92.907 62.7507 92.5941C62.6232 92.2812 62.435 91.9967 62.1971 91.7568C61.9591 91.517 61.676 91.3266 61.3641 91.1967C61.0522 91.0668 60.7176 90.9999 60.3798 91H54.2798Z" fill="#457FBE"/>
<path id="Vector_15" d="M87.0799 89H80.9799C78.4615 89 76.4199 91.0416 76.4199 93.56V99.66C76.4199 102.178 78.4615 104.22 80.9799 104.22H87.0799C89.5983 104.22 91.6399 102.178 91.6399 99.66V93.56C91.6399 91.0416 89.5983 89 87.0799 89Z" fill="white"/>
<path id="Vector_16" d="M87.0801 106.22H81.0801C79.3402 106.22 77.6717 105.529 76.4414 104.299C75.2112 103.068 74.5201 101.4 74.5201 99.66V93.66C74.5174 92.7968 74.6852 91.9416 75.0136 91.1434C75.3421 90.3452 75.8249 89.6197 76.4343 89.0084C77.0438 88.3971 77.7678 87.9121 78.565 87.5812C79.3622 87.2503 80.2169 87.08 81.0801 87.08H87.0801C87.9432 87.08 88.7979 87.2503 89.5951 87.5812C90.3923 87.9121 91.1163 88.3971 91.7258 89.0084C92.3352 89.6197 92.818 90.3452 93.1465 91.1434C93.4749 91.9416 93.6427 92.7968 93.6401 93.66V99.66C93.6401 101.4 92.9489 103.068 91.7187 104.299C90.4884 105.529 88.8199 106.22 87.0801 106.22ZM81.0801 91C80.7422 90.9999 80.4076 91.0668 80.0957 91.1967C79.7838 91.3266 79.5007 91.517 79.2627 91.7568C79.0248 91.9967 78.8366 92.2812 78.7092 92.5941C78.5817 92.907 78.5174 93.2421 78.5201 93.58V99.58C78.5201 100.259 78.7898 100.91 79.2699 101.39C79.75 101.87 80.4011 102.14 81.0801 102.14H87.0801C87.759 102.14 88.4102 101.87 88.8902 101.39C89.3703 100.91 89.6401 100.259 89.6401 99.58V93.58C89.6401 92.8991 89.371 92.2459 88.8915 91.7627C88.4119 91.2794 87.7608 91.0052 87.0801 91H81.0801Z" fill="#457FBE"/>
<path id="Vector_17" d="M113.76 89H107.66C105.142 89 103.1 91.0416 103.1 93.56V99.66C103.1 102.178 105.142 104.22 107.66 104.22H113.76C116.279 104.22 118.32 102.178 118.32 99.66V93.56C118.32 91.0416 116.279 89 113.76 89Z" fill="white"/>
<path id="Vector_18" d="M113.76 106.22H107.76C106.019 106.22 104.348 105.529 103.114 104.3C101.881 103.07 101.185 101.402 101.18 99.66V93.66C101.18 91.9148 101.873 90.2412 103.107 89.0072C104.341 87.7732 106.015 87.08 107.76 87.08H113.76C115.505 87.08 117.179 87.7732 118.413 89.0072C119.647 90.2412 120.34 91.9148 120.34 93.66V99.66C120.335 101.402 119.639 103.07 118.406 104.3C117.172 105.529 115.502 106.22 113.76 106.22ZM107.76 91C107.076 91 106.42 91.2718 105.936 91.7556C105.452 92.2395 105.18 92.8957 105.18 93.58V99.58C105.18 99.9178 105.247 100.252 105.377 100.564C105.507 100.876 105.697 101.159 105.937 101.397C106.177 101.635 106.461 101.823 106.774 101.951C107.087 102.078 107.422 102.143 107.76 102.14H113.76C114.098 102.143 114.433 102.078 114.746 101.951C115.059 101.823 115.343 101.635 115.583 101.397C115.823 101.159 116.014 100.876 116.143 100.564C116.273 100.252 116.34 99.9178 116.34 99.58V93.58C116.34 92.8957 116.068 92.2395 115.585 91.7556C115.101 91.2718 114.444 91 113.76 91H107.76Z" fill="#457FBE"/>
<path id="Vector_19" d="M140.46 89H134.36C131.841 89 129.8 91.0416 129.8 93.56V99.66C129.8 102.178 131.841 104.22 134.36 104.22H140.46C142.978 104.22 145.02 102.178 145.02 99.66V93.56C145.02 91.0416 142.978 89 140.46 89Z" fill="white"/>
<path id="Vector_20" d="M140.46 106.22H134.46C132.72 106.22 131.052 105.529 129.821 104.299C128.591 103.068 127.9 101.4 127.9 99.66V93.66C127.897 92.7968 128.065 91.9416 128.394 91.1434C128.722 90.3452 129.205 89.6197 129.814 89.0084C130.424 88.3971 131.148 87.9121 131.945 87.5812C132.742 87.2503 133.597 87.08 134.46 87.08H140.46C141.323 87.08 142.178 87.2503 142.975 87.5812C143.772 87.9121 144.496 88.3971 145.106 89.0084C145.715 89.6197 146.198 90.3452 146.526 91.1434C146.855 91.9416 147.023 92.7968 147.02 93.66V99.66C147.02 101.4 146.329 103.068 145.099 104.299C143.868 105.529 142.2 106.22 140.46 106.22ZM134.46 91C133.779 91.0052 133.128 91.2794 132.649 91.7627C132.169 92.2459 131.9 92.8991 131.9 93.58V99.58C131.9 100.259 132.17 100.91 132.65 101.39C133.13 101.87 133.781 102.14 134.46 102.14H140.46C141.139 102.14 141.79 101.87 142.27 101.39C142.75 100.91 143.02 100.259 143.02 99.58V93.58C143.023 93.2421 142.958 92.907 142.831 92.5941C142.703 92.2812 142.515 91.9967 142.277 91.7568C142.039 91.517 141.756 91.3266 141.444 91.1967C141.132 91.0668 140.798 90.9999 140.46 91H134.46Z" fill="#457FBE"/>
<path id="Vector_21" d="M33.68 63.84H27.58C25.0616 63.84 23.02 65.8815 23.02 68.4V74.5C23.02 77.0184 25.0616 79.06 27.58 79.06H33.68C36.1984 79.06 38.24 77.0184 38.24 74.5V68.4C38.24 65.8815 36.1984 63.84 33.68 63.84Z" fill="white"/>
<path id="Vector_22" d="M33.6801 81.0599H27.6801C25.9384 81.0599 24.2678 80.3694 23.0344 79.1398C21.801 77.9101 21.1054 76.2416 21.1001 74.4999V68.4999C21.1054 66.7583 21.801 65.0898 23.0344 63.8601C24.2678 62.6304 25.9384 61.9399 27.6801 61.9399H33.6801C35.4218 61.9399 37.0924 62.6304 38.3258 63.8601C39.5592 65.0898 40.2548 66.7583 40.2601 68.4999V74.4999C40.2548 76.2416 39.5592 77.9101 38.3258 79.1398C37.0924 80.3694 35.4218 81.0599 33.6801 81.0599ZM27.6801 65.8399C27.3422 65.8373 27.0072 65.9016 26.6943 66.029C26.3814 66.1565 26.0968 66.3447 25.857 66.5826C25.6171 66.8206 25.4268 67.1037 25.2969 67.4156C25.167 67.7275 25.1001 68.0621 25.1001 68.3999V74.3999C25.1054 75.0807 25.3795 75.7318 25.8628 76.2114C26.3461 76.6909 26.9993 76.96 27.6801 76.9599H33.6801C34.3609 76.96 35.0141 76.6909 35.4974 76.2114C35.9807 75.7318 36.2548 75.0807 36.2601 74.3999V68.3999C36.2601 68.0621 36.1932 67.7275 36.0633 67.4156C35.9334 67.1037 35.7431 66.8206 35.5032 66.5826C35.2634 66.3447 34.9788 66.1565 34.6659 66.029C34.353 65.9016 34.018 65.8373 33.6801 65.8399H27.6801Z" fill="#457FBE"/>
<path id="Vector_23" d="M60.3802 63.84H54.2802C51.7618 63.84 49.7202 65.8815 49.7202 68.4V74.5C49.7202 77.0184 51.7618 79.06 54.2802 79.06H60.3802C62.8986 79.06 64.9402 77.0184 64.9402 74.5V68.4C64.9402 65.8815 62.8986 63.84 60.3802 63.84Z" fill="white"/>
<path id="Vector_24" d="M60.3802 81.0599H54.2802C52.5404 81.0599 50.8718 80.3688 49.6416 79.1386C48.4114 77.9083 47.7202 76.2398 47.7202 74.4999V68.4999C47.7202 66.7601 48.4114 65.0916 49.6416 63.8613C50.8718 62.6311 52.5404 61.9399 54.2802 61.9399H60.3802C62.12 61.9399 63.7886 62.6311 65.0188 63.8613C66.2491 65.0916 66.9402 66.7601 66.9402 68.4999V74.4999C66.9402 76.2398 66.2491 77.9083 65.0188 79.1386C63.7886 80.3688 62.12 81.0599 60.3802 81.0599ZM54.2802 65.8399C53.944 65.8399 53.6111 65.9062 53.3005 66.0348C52.99 66.1635 52.7077 66.352 52.47 66.5897C52.2323 66.8275 52.0437 67.1097 51.9151 67.4203C51.7864 67.7309 51.7202 68.0638 51.7202 68.3999V74.3999C51.7254 75.0773 51.9968 75.7254 52.4758 76.2044C52.9548 76.6833 53.6029 76.9547 54.2802 76.9599H60.3802C61.0592 76.9599 61.7103 76.6902 62.1904 76.2101C62.6705 75.73 62.9402 75.0789 62.9402 74.3999V68.3999C62.9402 68.0638 62.874 67.7309 62.7453 67.4203C62.6167 67.1097 62.4281 66.8275 62.1904 66.5897C61.9527 66.352 61.6705 66.1635 61.3599 66.0348C61.0493 65.9062 60.7164 65.8399 60.3802 65.8399H54.2802Z" fill="#457FBE"/>
<path id="Vector_25" d="M87.0799 63.84H80.9799C78.4615 63.84 76.4199 65.8815 76.4199 68.4V74.5C76.4199 77.0184 78.4615 79.06 80.9799 79.06H87.0799C89.5983 79.06 91.6399 77.0184 91.6399 74.5V68.4C91.6399 65.8815 89.5983 63.84 87.0799 63.84Z" fill="white"/>
<path id="Vector_26" d="M87.08 81.0599H81.08C79.3402 81.0599 77.6716 80.3688 76.4414 79.1386C75.2112 77.9083 74.52 76.2398 74.52 74.4999V68.4999C74.52 66.7601 75.2112 65.0916 76.4414 63.8613C77.6716 62.6311 79.3402 61.9399 81.08 61.9399H87.08C88.8198 61.9399 90.4884 62.6311 91.7186 63.8613C92.9489 65.0916 93.64 66.7601 93.64 68.4999V74.4999C93.64 76.2398 92.9489 77.9083 91.7186 79.1386C90.4884 80.3688 88.8198 81.0599 87.08 81.0599ZM81.08 65.8399C80.7438 65.8399 80.411 65.9062 80.1004 66.0348C79.7898 66.1635 79.5075 66.352 79.2698 66.5897C79.0321 66.8275 78.8435 67.1097 78.7149 67.4203C78.5862 67.7309 78.52 68.0638 78.52 68.3999V74.3999C78.52 75.0789 78.7897 75.73 79.2698 76.2101C79.7499 76.6902 80.4011 76.9599 81.08 76.9599H87.08C87.7574 76.9547 88.4055 76.6833 88.8844 76.2044C89.3634 75.7254 89.6348 75.0773 89.64 74.3999V68.3999C89.64 68.0638 89.5738 67.7309 89.4452 67.4203C89.3165 67.1097 89.1279 66.8275 88.8902 66.5897C88.6525 66.352 88.3703 66.1635 88.0597 66.0348C87.7491 65.9062 87.4162 65.8399 87.08 65.8399H81.08Z" fill="#457FBE"/>
<path id="Vector_27" d="M113.76 63.84H107.66C105.142 63.84 103.1 65.8815 103.1 68.4V74.5C103.1 77.0184 105.142 79.06 107.66 79.06H113.76C116.279 79.06 118.32 77.0184 118.32 74.5V68.4C118.32 65.8815 116.279 63.84 113.76 63.84Z" fill="white"/>
<path id="Vector_28" d="M113.76 81.0599H107.76C106.019 81.0599 104.348 80.3694 103.114 79.1398C101.881 77.9101 101.185 76.2416 101.18 74.4999V68.4999C101.185 66.7583 101.881 65.0898 103.114 63.8601C104.348 62.6304 106.019 61.9399 107.76 61.9399H113.76C115.502 61.9399 117.172 62.6304 118.406 63.8601C119.639 65.0898 120.335 66.7583 120.34 68.4999V74.4999C120.335 76.2416 119.639 77.9101 118.406 79.1398C117.172 80.3694 115.502 81.0599 113.76 81.0599ZM107.76 65.8399C107.422 65.8373 107.087 65.9016 106.774 66.029C106.461 66.1565 106.177 66.3447 105.937 66.5826C105.697 66.8206 105.507 67.1037 105.377 67.4156C105.247 67.7275 105.18 68.0621 105.18 68.3999V74.3999C105.185 75.0807 105.46 75.7318 105.943 76.2114C106.426 76.6909 107.079 76.96 107.76 76.9599H113.76C114.441 76.96 115.094 76.6909 115.577 76.2114C116.061 75.7318 116.335 75.0807 116.34 74.3999V68.3999C116.34 68.0621 116.273 67.7275 116.143 67.4156C116.014 67.1037 115.823 66.8206 115.583 66.5826C115.343 66.3447 115.059 66.1565 114.746 66.029C114.433 65.9016 114.098 65.8373 113.76 65.8399H107.76Z" fill="#457FBE"/>
<path id="Vector_29" d="M140.46 63.84H134.36C131.841 63.84 129.8 65.8815 129.8 68.4V74.5C129.8 77.0184 131.841 79.06 134.36 79.06H140.46C142.978 79.06 145.02 77.0184 145.02 74.5V68.4C145.02 65.8815 142.978 63.84 140.46 63.84Z" fill="white"/>
<path id="Vector_30" d="M140.46 81.0599H134.46C132.72 81.0599 131.052 80.3688 129.821 79.1386C128.591 77.9083 127.9 76.2398 127.9 74.4999V68.4999C127.9 66.7601 128.591 65.0916 129.821 63.8613C131.052 62.6311 132.72 61.9399 134.46 61.9399H140.46C142.2 61.9399 143.868 62.6311 145.099 63.8613C146.329 65.0916 147.02 66.7601 147.02 68.4999V74.4999C147.02 76.2398 146.329 77.9083 145.099 79.1386C143.868 80.3688 142.2 81.0599 140.46 81.0599ZM134.46 65.8399C134.115 65.8265 133.772 65.8827 133.45 66.0053C133.127 66.128 132.833 66.3144 132.585 66.5535C132.336 66.7925 132.139 67.0793 132.004 67.3966C131.869 67.7139 131.8 68.0552 131.8 68.3999V74.3999C131.805 75.0773 132.077 75.7254 132.555 76.2044C133.034 76.6833 133.683 76.9547 134.36 76.9599H140.36C141.039 76.9599 141.69 76.6902 142.17 76.2101C142.65 75.73 142.92 75.0789 142.92 74.3999V68.3999C142.92 68.0638 142.854 67.7309 142.725 67.4203C142.596 67.1097 142.408 66.8275 142.17 66.5897C141.932 66.352 141.65 66.1635 141.34 66.0348C141.029 65.9062 140.696 65.8399 140.36 65.8399H134.46Z" fill="#457FBE"/>
<path id="Vector_31" d="M30.6401 48.8C29.8445 48.8 29.0814 48.4839 28.5188 47.9213C27.9562 47.3587 27.6401 46.5956 27.6401 45.8V30.36C27.6401 29.5643 27.9562 28.8013 28.5188 28.2387C29.0814 27.6761 29.8445 27.36 30.6401 27.36C31.4358 27.36 32.1989 27.6761 32.7615 28.2387C33.3241 28.8013 33.6401 29.5643 33.6401 30.36V45.8C33.6401 46.5956 33.3241 47.3587 32.7615 47.9213C32.1989 48.4839 31.4358 48.8 30.6401 48.8Z" fill="#FFC310"/>
<path id="Vector_32" d="M137.42 48.8C136.624 48.8 135.861 48.4839 135.299 47.9213C134.736 47.3587 134.42 46.5956 134.42 45.8V30.36C134.42 29.5643 134.736 28.8013 135.299 28.2387C135.861 27.6761 136.624 27.36 137.42 27.36C138.216 27.36 138.979 27.6761 139.541 28.2387C140.104 28.8013 140.42 29.5643 140.42 30.36V45.8C140.42 46.5956 140.104 47.3587 139.541 47.9213C138.979 48.4839 138.216 48.8 137.42 48.8Z" fill="#FFC310"/>
<path id="Vector_33" d="M57.3398 48.8C56.5442 48.8 55.7811 48.4839 55.2185 47.9213C54.6559 47.3587 54.3398 46.5956 54.3398 45.8V30.36C54.3398 29.5643 54.6559 28.8013 55.2185 28.2387C55.7811 27.6761 56.5442 27.36 57.3398 27.36C58.1355 27.36 58.8986 27.6761 59.4612 28.2387C60.0238 28.8013 60.3398 29.5643 60.3398 30.36V45.8C60.3398 46.5956 60.0238 47.3587 59.4612 47.9213C58.8986 48.4839 58.1355 48.8 57.3398 48.8Z" fill="#FFC310"/>
<path id="Vector_34" d="M84 48.8C83.2044 48.8 82.4413 48.4839 81.8787 47.9213C81.3161 47.3587 81 46.5956 81 45.8V30.36C81 29.5643 81.3161 28.8013 81.8787 28.2387C82.4413 27.6761 83.2044 27.36 84 27.36C84.7956 27.36 85.5587 27.6761 86.1213 28.2387C86.6839 28.8013 87 29.5643 87 30.36V45.8C87 46.5956 86.6839 47.3587 86.1213 47.9213C85.5587 48.4839 84.7956 48.8 84 48.8Z" fill="#FFC310"/>
<path id="Vector_35" d="M110.72 48.8C109.925 48.8 109.162 48.4839 108.599 47.9213C108.036 47.3587 107.72 46.5956 107.72 45.8V30.36C107.72 29.5643 108.036 28.8013 108.599 28.2387C109.162 27.6761 109.925 27.36 110.72 27.36C111.516 27.36 112.279 27.6761 112.842 28.2387C113.404 28.8013 113.72 29.5643 113.72 30.36V45.8C113.72 46.5956 113.404 47.3587 112.842 47.9213C112.279 48.4839 111.516 48.8 110.72 48.8Z" fill="#FFC310"/>
<path id="Vector_36" d="M164.72 179.42C182.482 179.42 196.88 165.021 196.88 147.26C196.88 129.498 182.482 115.1 164.72 115.1C146.959 115.1 132.56 129.498 132.56 147.26C132.56 165.021 146.959 179.42 164.72 179.42Z" fill="white"/>
<path id="Vector_37" d="M164.72 182.42C157.766 182.42 150.968 180.358 145.186 176.494C139.404 172.631 134.898 167.14 132.236 160.715C129.575 154.29 128.879 147.221 130.236 140.401C131.592 133.58 134.941 127.315 139.858 122.398C144.775 117.481 151.04 114.132 157.861 112.776C164.681 111.419 171.751 112.115 178.175 114.776C184.6 117.438 190.091 121.944 193.955 127.726C197.818 133.508 199.88 140.306 199.88 147.26C199.869 156.582 196.162 165.519 189.57 172.11C182.979 178.702 174.042 182.409 164.72 182.42ZM164.72 118.1C158.953 118.1 153.315 119.81 148.52 123.014C143.724 126.218 139.987 130.773 137.78 136.101C135.573 141.429 134.995 147.292 136.12 152.949C137.246 158.605 140.023 163.801 144.101 167.879C148.179 171.957 153.375 174.735 159.031 175.86C164.688 176.985 170.551 176.407 175.879 174.2C181.207 171.993 185.762 168.256 188.966 163.46C192.17 158.665 193.88 153.027 193.88 147.26C193.869 139.53 190.794 132.119 185.328 126.652C179.861 121.186 172.451 118.111 164.72 118.1Z" fill="#FFC310"/>
<path id="Vector_38" d="M150.9 150.04L158.26 157.4L178.54 137.12" fill="white"/>
<path id="Vector_39" d="M158.26 159.4C157.997 159.402 157.736 159.351 157.492 159.252C157.249 159.152 157.027 159.005 156.84 158.82L149.48 151.46C149.295 151.274 149.148 151.052 149.049 150.809C148.949 150.566 148.898 150.306 148.899 150.043C148.9 149.78 148.953 149.52 149.054 149.278C149.155 149.035 149.304 148.815 149.49 148.63C149.677 148.445 149.898 148.298 150.141 148.199C150.384 148.099 150.644 148.048 150.907 148.049C151.17 148.05 151.43 148.103 151.672 148.204C151.915 148.305 152.135 148.454 152.32 148.64L158.32 154.64L177.2 135.76C177.575 135.388 178.082 135.178 178.61 135.178C179.138 135.178 179.645 135.388 180.02 135.76C180.208 135.946 180.356 136.167 180.458 136.411C180.559 136.655 180.612 136.916 180.612 137.18C180.612 137.444 180.559 137.705 180.458 137.949C180.356 138.193 180.208 138.414 180.02 138.6L159.68 158.82C159.493 159.005 159.272 159.152 159.028 159.252C158.784 159.351 158.523 159.402 158.26 159.4Z" fill="#FFC310"/>
</g>
</g>
</g>
</g>
<defs>
<clipPath id="clip0_168_1021">
<rect width="200" height="200" fill="white"/>
</clipPath>
</defs>
</svg>
