<svg width="153" height="27" viewBox="0 0 153 27" fill="none" xmlns="http://www.w3.org/2000/svg">
<g id="Layer_1" clip-path="url(#clip0_172_6317)">
<path id="Vector" d="M13.89 0L17.97 8.99L27.78 10.09L20.49 16.75L22.48 26.42L13.89 21.55L5.31 26.42L7.29 16.75L0 10.09L9.81 8.99L13.89 0Z" fill="#FFC310"/>
<path id="Vector_2" d="M45.1498 0L49.2298 8.99L59.0398 10.09L51.7498 16.75L53.7298 26.42L45.1498 21.55L36.5598 26.42L38.5498 16.75L31.2598 10.09L41.0698 8.99L45.1498 0Z" fill="#FFC310"/>
<path id="Vector_3" d="M76.41 0L80.49 8.99L90.3 10.09L83.01 16.75L84.99 26.42L76.41 21.55L67.82 26.42L69.81 16.75L62.52 10.09L72.33 8.99L76.41 0Z" fill="#FFC310"/>
<path id="Vector_4" d="M107.67 0L111.74 8.99L121.56 10.09L114.27 16.75L116.25 26.42L107.67 21.55L99.08 26.42L101.06 16.75L93.77 10.09L103.59 8.99L107.67 0Z" fill="#FFC310"/>
<path id="Vector_5" d="M138.92 0L143 8.99L152.81 10.09L145.52 16.75L147.51 26.42L138.92 21.55L130.34 26.42L132.32 16.75L125.03 10.09L134.84 8.99L138.92 0Z" fill="#FFC310"/>
</g>
<defs>
<clipPath id="clip0_172_6317">
<rect width="152.81" height="26.42" fill="white"/>
</clipPath>
</defs>
</svg>
