<svg width="200" height="200" viewBox="0 0 200 200" fill="none" xmlns="http://www.w3.org/2000/svg">
<path d="M182.04 26.22H18.8398C16.3546 26.22 14.3398 28.2347 14.3398 30.72V169.26C14.3398 171.745 16.3546 173.76 18.8398 173.76H182.04C184.525 173.76 186.54 171.745 186.54 169.26V30.72C186.54 28.2347 184.525 26.22 182.04 26.22Z" fill="white"/>
<path d="M182 176.78H18.8598C16.867 176.775 14.9574 175.981 13.5482 174.572C12.1391 173.162 11.3451 171.253 11.3398 169.26V30.74C11.3451 28.7472 12.1391 26.8375 13.5482 25.4284C14.9574 24.0192 16.867 23.2252 18.8598 23.22H182C183.991 23.2253 185.898 24.0199 187.304 25.4296C188.71 26.8393 189.5 28.749 189.5 30.74V169.26C189.5 171.251 188.71 173.161 187.304 174.57C185.898 175.98 183.991 176.775 182 176.78ZM18.8598 29.22C18.4567 29.22 18.0701 29.3801 17.785 29.6652C17.5 29.9502 17.3398 30.3368 17.3398 30.74V169.26C17.3398 169.663 17.5 170.05 17.785 170.335C18.0701 170.62 18.4567 170.78 18.8598 170.78H182C182.4 170.775 182.781 170.612 183.062 170.328C183.342 170.043 183.5 169.66 183.5 169.26V30.74C183.5 30.3403 183.342 29.9567 183.062 29.6722C182.781 29.3877 182.4 29.2252 182 29.22H18.8598Z" fill="#457FBE"/>
<path d="M31.7601 42.4799C33.7815 42.4799 35.4201 40.8413 35.4201 38.8199C35.4201 36.7985 33.7815 35.1599 31.7601 35.1599C29.7387 35.1599 28.1001 36.7985 28.1001 38.8199C28.1001 40.8413 29.7387 42.4799 31.7601 42.4799Z" fill="#FFC310"/>
<path d="M44.2401 42.4799C46.2614 42.4799 47.9001 40.8413 47.9001 38.8199C47.9001 36.7985 46.2614 35.1599 44.2401 35.1599C42.2187 35.1599 40.5801 36.7985 40.5801 38.8199C40.5801 40.8413 42.2187 42.4799 44.2401 42.4799Z" fill="#FFC310"/>
<path d="M56.7 42.4799C58.7214 42.4799 60.36 40.8413 60.36 38.8199C60.36 36.7985 58.7214 35.1599 56.7 35.1599C54.6787 35.1599 53.04 36.7985 53.04 38.8199C53.04 40.8413 54.6787 42.4799 56.7 42.4799Z" fill="#FFC310"/>
<path d="M168.82 41.8201H134.82C134.024 41.8201 133.261 41.504 132.699 40.9414C132.136 40.3788 131.82 39.6157 131.82 38.8201C131.82 38.0244 132.136 37.2614 132.699 36.6987C133.261 36.1361 134.024 35.8201 134.82 35.8201H168.82C169.615 35.8201 170.379 36.1361 170.941 36.6987C171.504 37.2614 171.82 38.0244 171.82 38.8201C171.82 39.6157 171.504 40.3788 170.941 40.9414C170.379 41.504 169.615 41.8201 168.82 41.8201Z" fill="#FFC310"/>
<path d="M186.54 47.1001H14.3398V53.1001H186.54V47.1001Z" fill="#457FBE"/>
<path d="M173.84 61.1799H26.82C25.8259 61.1799 25.02 61.9858 25.02 62.9799V81.1399C25.02 82.134 25.8259 82.9399 26.82 82.9399H173.84C174.834 82.9399 175.64 82.134 175.64 81.1399V62.9799C175.64 61.9858 174.834 61.1799 173.84 61.1799Z" fill="white"/>
<path d="M173.84 84.9199H26.82C25.8122 84.9199 24.8457 84.5196 24.133 83.8069C23.4204 83.0943 23.02 82.1278 23.02 81.1199V62.9799C23.02 61.9721 23.4204 61.0056 24.133 60.2929C24.8457 59.5803 25.8122 59.1799 26.82 59.1799H173.84C174.846 59.1852 175.81 59.5872 176.521 60.2987C177.233 61.0102 177.635 61.9737 177.64 62.9799V81.1199C177.635 82.1261 177.233 83.0896 176.521 83.8011C175.81 84.5126 174.846 84.9147 173.84 84.9199ZM27.02 80.9199H173.64V63.1799H27.02V80.9199Z" fill="#457FBE"/>
<path d="M173.82 95.52H120.3C119.306 95.52 118.5 96.3259 118.5 97.32V161.92C118.5 162.914 119.306 163.72 120.3 163.72H173.82C174.814 163.72 175.62 162.914 175.62 161.92V97.32C175.62 96.3259 174.814 95.52 173.82 95.52Z" fill="white"/>
<path d="M173.84 165.72H120.32C119.324 165.72 118.367 165.332 117.654 164.637C116.94 163.942 116.526 162.996 116.5 162V97.32C116.505 96.3104 116.91 95.3439 117.626 94.6318C118.342 93.9197 119.31 93.52 120.32 93.52H173.84C174.846 93.5253 175.81 93.9273 176.521 94.6388C177.233 95.3503 177.635 96.3138 177.64 97.32V162C177.614 162.992 177.203 163.935 176.494 164.63C175.784 165.324 174.833 165.715 173.84 165.72ZM120.5 161.72H173.64V97.52H120.5V161.72Z" fill="#457FBE"/>
<path d="M103.22 147.08H49.6999C48.7058 147.08 47.8999 147.886 47.8999 148.88V158.52C47.8999 159.514 48.7058 160.32 49.6999 160.32H103.22C104.214 160.32 105.02 159.514 105.02 158.52V148.88C105.02 147.886 104.214 147.08 103.22 147.08Z" fill="white"/>
<path d="M103.24 162.3H49.6999C48.6937 162.295 47.7302 161.893 47.0187 161.181C46.3072 160.47 45.9052 159.506 45.8999 158.5V148.88C45.9052 147.874 46.3072 146.91 47.0187 146.199C47.7302 145.487 48.6937 145.085 49.6999 145.08H103.24C104.246 145.085 105.21 145.487 105.921 146.199C106.633 146.91 107.035 147.874 107.04 148.88V158.5C107.035 159.506 106.633 160.47 105.921 161.181C105.21 161.893 104.246 162.295 103.24 162.3ZM49.9999 158.3H103.04V149.08H49.9999V158.3Z" fill="#457FBE"/>
<path d="M105.04 105.26H71.04C70.2444 105.26 69.4813 104.944 68.9187 104.381C68.3561 103.819 68.04 103.056 68.04 102.26C68.04 101.464 68.3561 100.701 68.9187 100.139C69.4813 99.5761 70.2444 99.26 71.04 99.26H105.04C105.836 99.26 106.599 99.5761 107.161 100.139C107.724 100.701 108.04 101.464 108.04 102.26C108.04 103.056 107.724 103.819 107.161 104.381C106.599 104.944 105.836 105.26 105.04 105.26Z" fill="#FFC310"/>
<path d="M105.04 117.16H34.52C33.9896 117.16 33.4809 116.949 33.1058 116.574C32.7307 116.199 32.52 115.69 32.52 115.16C32.52 114.629 32.7307 114.121 33.1058 113.746C33.4809 113.371 33.9896 113.16 34.52 113.16H105.04C105.57 113.16 106.079 113.371 106.454 113.746C106.829 114.121 107.04 114.629 107.04 115.16C107.04 115.69 106.829 116.199 106.454 116.574C106.079 116.949 105.57 117.16 105.04 117.16Z" fill="#FFC310"/>
<path d="M105.04 126.32H34.52C33.9896 126.32 33.4809 126.109 33.1058 125.734C32.7307 125.359 32.52 124.851 32.52 124.32C32.52 123.79 32.7307 123.281 33.1058 122.906C33.4809 122.531 33.9896 122.32 34.52 122.32H105.04C105.57 122.32 106.079 122.531 106.454 122.906C106.829 123.281 107.04 123.79 107.04 124.32C107.04 124.851 106.829 125.359 106.454 125.734C106.079 126.109 105.57 126.32 105.04 126.32Z" fill="#FFC310"/>
<path d="M105.04 135.22H53.04C52.5096 135.22 52.0009 135.009 51.6258 134.634C51.2508 134.259 51.04 133.75 51.04 133.22C51.04 132.69 51.2508 132.181 51.6258 131.806C52.0009 131.431 52.5096 131.22 53.04 131.22H105.04C105.57 131.22 106.079 131.431 106.454 131.806C106.829 132.181 107.04 132.69 107.04 133.22C107.04 133.75 106.829 134.259 106.454 134.634C106.079 135.009 105.57 135.22 105.04 135.22Z" fill="#FFC310"/>
<path d="M171.996 95.1203L119.747 160.713L122.875 163.206L175.125 97.6126L171.996 95.1203Z" fill="#457FBE"/>
<path d="M121.546 96.1161L118.455 98.655L171.937 163.766L175.028 161.227L121.546 96.1161Z" fill="#457FBE"/>
<path d="M175.693 62.0797L23.2124 79.9111L23.4447 81.8976L175.926 64.0661L175.693 62.0797Z" fill="#457FBE"/>
<path d="M23.4372 62.1253L23.2056 64.1118L175.693 81.89L175.924 79.9035L23.4372 62.1253Z" fill="#457FBE"/>
</svg>
